<?xml version="1.0" encoding="UTF-8"?>
<!--Generator: Apple Native CoreSVG 149-->
<!DOCTYPE svg
PUBLIC "-//W3C//DTD SVG 1.1//EN"
       "http://www.w3.org/Graphics/SVG/1.1/DTD/svg11.dtd">
<svg version="1.1" xmlns="http://www.w3.org/2000/svg" xmlns:xlink="http://www.w3.org/1999/xlink" width="3300" height="2200">
 <!--glyph: "uni1001FA.medium", point size: 100.000000, font version: "Version 16.0d18e1", template writer version: "8"-->
 <g id="Notes">
  <rect height="2200" id="artboard" style="fill:white;opacity:1" width="3300" x="0" y="0"/>
  <line id="" style="fill:none;stroke:black;opacity:1;stroke-width:0.5;" x1="263" x2="3036" y1="292" y2="292"/>
  <text style="stroke:none;fill:black;font-family:-apple-system,&quot;SF Pro Display&quot;,&quot;SF Pro Text&quot;,Helvetica,sans-serif;font-weight:bold;" transform="matrix(1 0 0 1 263 322)">Weight/Scale Variations</text>
  <text style="stroke:none;fill:black;font-family:-apple-system,&quot;SF Pro Display&quot;,&quot;SF Pro Text&quot;,Helvetica,sans-serif;text-anchor:middle;" transform="matrix(1 0 0 1 559.711 322)">Ultralight</text>
  <text style="stroke:none;fill:black;font-family:-apple-system,&quot;SF Pro Display&quot;,&quot;SF Pro Text&quot;,Helvetica,sans-serif;text-anchor:middle;" transform="matrix(1 0 0 1 856.422 322)">Thin</text>
  <text style="stroke:none;fill:black;font-family:-apple-system,&quot;SF Pro Display&quot;,&quot;SF Pro Text&quot;,Helvetica,sans-serif;text-anchor:middle;" transform="matrix(1 0 0 1 1153.13 322)">Light</text>
  <text style="stroke:none;fill:black;font-family:-apple-system,&quot;SF Pro Display&quot;,&quot;SF Pro Text&quot;,Helvetica,sans-serif;text-anchor:middle;" transform="matrix(1 0 0 1 1449.84 322)">Regular</text>
  <text style="stroke:none;fill:black;font-family:-apple-system,&quot;SF Pro Display&quot;,&quot;SF Pro Text&quot;,Helvetica,sans-serif;text-anchor:middle;" transform="matrix(1 0 0 1 1746.56 322)">Medium</text>
  <text style="stroke:none;fill:black;font-family:-apple-system,&quot;SF Pro Display&quot;,&quot;SF Pro Text&quot;,Helvetica,sans-serif;text-anchor:middle;" transform="matrix(1 0 0 1 2043.27 322)">Semibold</text>
  <text style="stroke:none;fill:black;font-family:-apple-system,&quot;SF Pro Display&quot;,&quot;SF Pro Text&quot;,Helvetica,sans-serif;text-anchor:middle;" transform="matrix(1 0 0 1 2339.98 322)">Bold</text>
  <text style="stroke:none;fill:black;font-family:-apple-system,&quot;SF Pro Display&quot;,&quot;SF Pro Text&quot;,Helvetica,sans-serif;text-anchor:middle;" transform="matrix(1 0 0 1 2636.69 322)">Heavy</text>
  <text style="stroke:none;fill:black;font-family:-apple-system,&quot;SF Pro Display&quot;,&quot;SF Pro Text&quot;,Helvetica,sans-serif;text-anchor:middle;" transform="matrix(1 0 0 1 2933.4 322)">Black</text>
  <line id="" style="fill:none;stroke:black;opacity:1;stroke-width:0.5;" x1="263" x2="3036" y1="1903" y2="1903"/>
  <g id="" transform="matrix(1 0 0 1 263 1933)">
   <path d="M9.24805 0.830078C13.5547 0.830078 17.1387-2.74414 17.1387-7.05078C17.1387-11.3574 13.5449-14.9316 9.23828-14.9316C4.94141-14.9316 1.36719-11.3574 1.36719-7.05078C1.36719-2.74414 4.95117 0.830078 9.24805 0.830078ZM9.24805-0.654297C5.70312-0.654297 2.87109-3.49609 2.87109-7.05078C2.87109-10.6055 5.69336-13.4473 9.23828-13.4473C12.793-13.4473 15.6348-10.6055 15.6445-7.05078C15.6543-3.49609 12.8027-0.654297 9.24805-0.654297ZM6.39648-6.31836L8.50586-6.31836L8.50586-4.19922C8.50586-3.75977 8.79883-3.45703 9.22852-3.45703C9.67773-3.45703 9.9707-3.75977 9.9707-4.19922L9.9707-6.31836L12.0996-6.31836C12.5391-6.31836 12.8418-6.61133 12.8418-7.04102C12.8418-7.48047 12.5391-7.7832 12.0996-7.7832L9.9707-7.7832L9.9707-9.89258C9.9707-10.3418 9.67773-10.6445 9.22852-10.6445C8.79883-10.6445 8.50586-10.3418 8.50586-9.89258L8.50586-7.7832L6.39648-7.7832C5.94727-7.7832 5.64453-7.48047 5.64453-7.04102C5.64453-6.61133 5.94727-6.31836 6.39648-6.31836Z"/>
  </g>
  <g id="" transform="matrix(1 0 0 1 281.506 1933)">
   <path d="M11.709 2.91016C17.1582 2.91016 21.6699-1.61133 21.6699-7.05078C21.6699-12.5 17.1484-17.0117 11.6992-17.0117C6.25977-17.0117 1.74805-12.5 1.74805-7.05078C1.74805-1.61133 6.26953 2.91016 11.709 2.91016ZM11.709 1.25C7.09961 1.25 3.41797-2.44141 3.41797-7.05078C3.41797-11.6602 7.08984-15.3516 11.6992-15.3516C16.3086-15.3516 20-11.6602 20.0098-7.05078C20.0195-2.44141 16.3184 1.25 11.709 1.25ZM7.98828-6.23047L10.8789-6.23047L10.8789-3.32031C10.8789-2.83203 11.2109-2.5 11.6895-2.5C12.1777-2.5 12.5195-2.83203 12.5195-3.32031L12.5195-6.23047L15.4297-6.23047C15.918-6.23047 16.25-6.5625 16.25-7.04102C16.25-7.5293 15.918-7.87109 15.4297-7.87109L12.5195-7.87109L12.5195-10.7617C12.5195-11.2695 12.1777-11.6016 11.6895-11.6016C11.2109-11.6016 10.8789-11.2598 10.8789-10.7617L10.8789-7.87109L7.98828-7.87109C7.48047-7.87109 7.14844-7.5293 7.14844-7.04102C7.14844-6.5625 7.49023-6.23047 7.98828-6.23047Z"/>
  </g>
  <g id="" transform="matrix(1 0 0 1 304.924 1933)">
   <path d="M14.9707 5.66406C21.9336 5.66406 27.6953-0.0976562 27.6953-7.05078C27.6953-14.0137 21.9238-19.7754 14.9609-19.7754C8.00781-19.7754 2.25586-14.0137 2.25586-7.05078C2.25586-0.0976562 8.01758 5.66406 14.9707 5.66406ZM14.9707 3.84766C8.93555 3.84766 4.08203-1.01562 4.08203-7.05078C4.08203-13.0957 8.92578-17.9492 14.9609-17.9492C21.0059-17.9492 25.8594-13.0957 25.8691-7.05078C25.8789-1.01562 21.0156 3.84766 14.9707 3.84766ZM10.0586-6.14258L14.0625-6.14258L14.0625-2.12891C14.0625-1.5918 14.4336-1.2207 14.9512-1.2207C15.4883-1.2207 15.8594-1.5918 15.8594-2.12891L15.8594-6.14258L19.8828-6.14258C20.4102-6.14258 20.791-6.51367 20.791-7.03125C20.791-7.56836 20.4199-7.94922 19.8828-7.94922L15.8594-7.94922L15.8594-11.9531C15.8594-12.5098 15.4883-12.8809 14.9512-12.8809C14.4336-12.8809 14.0625-12.5 14.0625-11.9531L14.0625-7.94922L10.0586-7.94922C9.50195-7.94922 9.13086-7.56836 9.13086-7.03125C9.13086-6.51367 9.51172-6.14258 10.0586-6.14258Z"/>
  </g>
  <text style="stroke:none;fill:black;font-family:-apple-system,&quot;SF Pro Display&quot;,&quot;SF Pro Text&quot;,Helvetica,sans-serif;font-weight:bold;" transform="matrix(1 0 0 1 263 1953)">Design Variations</text>
  <text style="stroke:none;fill:black;font-family:-apple-system,&quot;SF Pro Display&quot;,&quot;SF Pro Text&quot;,Helvetica,sans-serif;" transform="matrix(1 0 0 1 263 1971)">Symbols are supported in up to nine weights and three scales.</text>
  <text style="stroke:none;fill:black;font-family:-apple-system,&quot;SF Pro Display&quot;,&quot;SF Pro Text&quot;,Helvetica,sans-serif;" transform="matrix(1 0 0 1 263 1989)">For optimal layout with text and other symbols, vertically align</text>
  <text style="stroke:none;fill:black;font-family:-apple-system,&quot;SF Pro Display&quot;,&quot;SF Pro Text&quot;,Helvetica,sans-serif;" transform="matrix(1 0 0 1 263 2007)">symbols with the adjacent text.</text>
  <line id="" style="fill:none;stroke:#00AEEF;stroke-width:0.5;opacity:1.0;" x1="776" x2="776" y1="1919" y2="1933"/>
  <g id="" transform="matrix(1 0 0 1 776 1933)">
   <path d="M3.31055 0.126953C3.82812 0.126953 4.08203-0.0683594 4.26758-0.605469L5.52734-4.0625L11.2891-4.0625L12.5488-0.605469C12.7344-0.0683594 12.9883 0.126953 13.4961 0.126953C14.0137 0.126953 14.3457-0.185547 14.3457-0.673828C14.3457-0.839844 14.3164-0.986328 14.2383-1.20117L9.6582-13.3887C9.43359-13.9941 9.0332-14.2871 8.4082-14.2871C7.80273-14.2871 7.39258-13.9941 7.17773-13.3984L2.59766-1.19141C2.51953-0.976562 2.49023-0.830078 2.49023-0.664062C2.49023-0.175781 2.80273 0.126953 3.31055 0.126953ZM6.00586-5.53711L8.37891-12.1094L8.42773-12.1094L10.8008-5.53711Z"/>
  </g>
  <line id="" style="fill:none;stroke:#00AEEF;stroke-width:0.5;opacity:1.0;" x1="792.836" x2="792.836" y1="1919" y2="1933"/>
  <text style="stroke:none;fill:black;font-family:-apple-system,&quot;SF Pro Display&quot;,&quot;SF Pro Text&quot;,Helvetica,sans-serif;font-weight:bold;" transform="matrix(1 0 0 1 776 1953)">Margins</text>
  <text style="stroke:none;fill:black;font-family:-apple-system,&quot;SF Pro Display&quot;,&quot;SF Pro Text&quot;,Helvetica,sans-serif;" transform="matrix(1 0 0 1 776 1971)">Leading and trailing margins on the left and right side of each symbol</text>
  <text style="stroke:none;fill:black;font-family:-apple-system,&quot;SF Pro Display&quot;,&quot;SF Pro Text&quot;,Helvetica,sans-serif;" transform="matrix(1 0 0 1 776 1989)">can be adjusted by modifying the x-location of the margin guidelines.</text>
  <text style="stroke:none;fill:black;font-family:-apple-system,&quot;SF Pro Display&quot;,&quot;SF Pro Text&quot;,Helvetica,sans-serif;" transform="matrix(1 0 0 1 776 2007)">Modifications are automatically applied proportionally to all</text>
  <text style="stroke:none;fill:black;font-family:-apple-system,&quot;SF Pro Display&quot;,&quot;SF Pro Text&quot;,Helvetica,sans-serif;" transform="matrix(1 0 0 1 776 2025)">scales and weights.</text>
  <g id="" transform="matrix(1 0 0 1 1289 1933)">
   <path d="M2.8418 1.86523L4.54102 3.57422C5.40039 4.44336 6.38672 4.38477 7.31445 3.35938L17.4902-7.85156C17.7539-7.76367 18.0273-7.7832 18.3398-7.8418L19.4043-8.03711L20.0684-7.36328L20.0293-6.80664C19.9902-6.30859 20.1172-5.92773 20.6055-5.44922L21.3672-4.70703C21.8457-4.22852 22.4609-4.19922 22.9297-4.66797L25.8398-7.58789C26.3086-8.05664 26.2891-8.65234 25.8105-9.13086L25.0391-9.89258C24.5605-10.3711 24.1895-10.5273 23.7109-10.4883L23.1348-10.4395L22.4902-11.0742L22.7344-12.1973C22.8613-12.7637 22.7051-13.2031 22.1191-13.7891L19.9219-15.9766C16.582-19.2969 12.1484-19.2188 9.25781-16.3281C8.83789-15.918 8.80859-15.3418 9.04297-14.9512C9.27734-14.5898 9.73633-14.3555 10.3809-14.5215C11.8457-14.8633 13.3691-14.9219 14.7949-13.9844L14.209-12.5293C14.0137-12.0508 13.9844-11.6504 14.1113-11.2891L3.04688-0.898438C2.06055 0.0195312 1.98242 0.996094 2.8418 1.86523ZM10.752-15.957C13.1836-17.7344 16.4746-17.4316 18.7012-15.2051L21.1328-12.793C21.3672-12.5586 21.4062-12.373 21.3379-12.0312L21.0156-10.5469L22.5195-9.0625L23.5059-9.12109C23.7598-9.13086 23.8379-9.11133 24.0332-8.91602L24.6094-8.33984L22.168-5.89844L21.5918-6.47461C21.3965-6.66992 21.3672-6.74805 21.377-7.01172L21.4453-7.98828L19.9512-9.47266L18.4277-9.21875C18.1055-9.15039 17.959-9.17969 17.7148-9.41406L15.7129-11.416C15.459-11.6504 15.4297-11.8164 15.5859-12.1875L16.4648-14.2773C14.9023-15.7324 12.8711-16.3574 10.8398-15.7617C10.6836-15.7227 10.625-15.8496 10.752-15.957ZM5.27344 2.30469L4.10156 1.14258C3.63281 0.683594 3.74023 0.341797 4.14062-0.0195312L14.9512-10.1953L16.416-8.71094L6.42578 2.27539C6.07422 2.67578 5.74219 2.77344 5.27344 2.30469Z"/>
  </g>
  <text style="stroke:none;fill:black;font-family:-apple-system,&quot;SF Pro Display&quot;,&quot;SF Pro Text&quot;,Helvetica,sans-serif;font-weight:bold;" transform="matrix(1 0 0 1 1289 1953)">Exporting</text>
  <text style="stroke:none;fill:black;font-family:-apple-system,&quot;SF Pro Display&quot;,&quot;SF Pro Text&quot;,Helvetica,sans-serif;" transform="matrix(1 0 0 1 1289 1971)">Symbols should be outlined when exporting to ensure the</text>
  <text style="stroke:none;fill:black;font-family:-apple-system,&quot;SF Pro Display&quot;,&quot;SF Pro Text&quot;,Helvetica,sans-serif;" transform="matrix(1 0 0 1 1289 1989)">design is preserved when submitting to Xcode.</text>
  <text id="template-version" style="stroke:none;fill:black;font-family:-apple-system,&quot;SF Pro Display&quot;,&quot;SF Pro Text&quot;,Helvetica,sans-serif;text-anchor:end;" transform="matrix(1 0 0 1 3036 1933)">Template v.2.0</text>
  <text style="stroke:none;fill:black;font-family:-apple-system,&quot;SF Pro Display&quot;,&quot;SF Pro Text&quot;,Helvetica,sans-serif;text-anchor:end;" transform="matrix(1 0 0 1 3036 1951)">Requires Xcode 12 or greater</text>
  <text style="stroke:none;fill:black;font-family:-apple-system,&quot;SF Pro Display&quot;,&quot;SF Pro Text&quot;,Helvetica,sans-serif;text-anchor:end;" transform="matrix(1 0 0 1 3036 1969)">Generated from checkmark.seal</text>
  <text style="stroke:none;fill:black;font-family:-apple-system,&quot;SF Pro Display&quot;,&quot;SF Pro Text&quot;,Helvetica,sans-serif;text-anchor:end;" transform="matrix(1 0 0 1 3036 1987)">Typeset at 100 points</text>
  <text style="stroke:none;fill:black;font-family:-apple-system,&quot;SF Pro Display&quot;,&quot;SF Pro Text&quot;,Helvetica,sans-serif;" transform="matrix(1 0 0 1 263 726)">Small</text>
  <text style="stroke:none;fill:black;font-family:-apple-system,&quot;SF Pro Display&quot;,&quot;SF Pro Text&quot;,Helvetica,sans-serif;" transform="matrix(1 0 0 1 263 1156)">Medium</text>
  <text style="stroke:none;fill:black;font-family:-apple-system,&quot;SF Pro Display&quot;,&quot;SF Pro Text&quot;,Helvetica,sans-serif;" transform="matrix(1 0 0 1 263 1586)">Large</text>
 </g>
 <g id="Guides">
  <g id="H-reference" style="fill:#27AAE1;stroke:none;" transform="matrix(1 0 0 1 339 696)">
   <path d="M0.976562 0L3.66211 0L12.9883-24.4629L45.752-24.4629L55.127 0L57.7637 0L30.6152-70.459L28.125-70.459ZM29.3457-67.1387L29.4434-67.1387L44.873-26.709L13.8672-26.709Z"/>
  </g>
  <line id="Baseline-S" style="fill:none;stroke:#27AAE1;opacity:1;stroke-width:0.5;" x1="263" x2="3036" y1="696" y2="696"/>
  <line id="Capline-S" style="fill:none;stroke:#27AAE1;opacity:1;stroke-width:0.5;" x1="263" x2="3036" y1="625.541" y2="625.541"/>
  <g id="H-reference" style="fill:#27AAE1;stroke:none;" transform="matrix(1 0 0 1 339 1126)">
   <path d="M0.976562 0L3.66211 0L12.9883-24.4629L45.752-24.4629L55.127 0L57.7637 0L30.6152-70.459L28.125-70.459ZM29.3457-67.1387L29.4434-67.1387L44.873-26.709L13.8672-26.709Z"/>
  </g>
  <line id="Baseline-M" style="fill:none;stroke:#27AAE1;opacity:1;stroke-width:0.5;" x1="263" x2="3036" y1="1126" y2="1126"/>
  <line id="Capline-M" style="fill:none;stroke:#27AAE1;opacity:1;stroke-width:0.5;" x1="263" x2="3036" y1="1055.54" y2="1055.54"/>
  <g id="H-reference" style="fill:#27AAE1;stroke:none;" transform="matrix(1 0 0 1 339 1556)">
   <path d="M0.976562 0L3.66211 0L12.9883-24.4629L45.752-24.4629L55.127 0L57.7637 0L30.6152-70.459L28.125-70.459ZM29.3457-67.1387L29.4434-67.1387L44.873-26.709L13.8672-26.709Z"/>
  </g>
  <line id="Baseline-L" style="fill:none;stroke:#27AAE1;opacity:1;stroke-width:0.5;" x1="263" x2="3036" y1="1556" y2="1556"/>
  <line id="Capline-L" style="fill:none;stroke:#27AAE1;opacity:1;stroke-width:0.5;" x1="263" x2="3036" y1="1485.54" y2="1485.54"/>
  <line id="left-margin" style="fill:none;stroke:#00AEEF;stroke-width:0.5;opacity:1.0;" x1="1385.66" x2="1385.66" y1="1030.79" y2="1150.12"/>
  <line id="right-margin" style="fill:none;stroke:#00AEEF;stroke-width:0.5;opacity:1.0;" x1="1514.03" x2="1514.03" y1="1030.79" y2="1150.12"/>
 </g>
 <g id="Symbols">
  <g id="Black-L" transform="matrix(1 0 0 1 2848.32 1556)">
   <path d="M47.3633 21.6797L60.2051 21.6797C61.084 21.6797 61.6699 21.875 62.4023 22.6074L71.4355 31.6406C80.5664 40.7715 89.5996 40.7715 98.7305 31.6406L107.764 22.6074C108.496 21.875 109.082 21.6797 110.01 21.6797L122.803 21.6797C135.693 21.6797 142.09 15.2344 142.09 2.39258L142.09-10.4004C142.09-11.3281 142.383-11.9629 143.018-12.6465L152.051-21.6797C161.23-30.8105 161.182-39.8438 152.051-48.9746L143.018-58.0078C142.334-58.7402 142.09-59.3262 142.09-60.2539L142.09-73.0469C142.09-85.9375 135.693-92.334 122.803-92.334L110.01-92.334C109.082-92.334 108.447-92.627 107.764-93.2617L98.7305-102.295C89.5508-111.475 80.7129-111.377 71.4355-102.246L62.4023-93.2617C61.7676-92.627 61.084-92.334 60.2051-92.334L47.3633-92.334C34.4727-92.334 28.0762-86.0352 28.0762-73.0469L28.0762-60.2539C28.0762-59.3262 27.832-58.6914 27.1484-58.0078L18.1152-48.9746C8.98438-39.8438 8.98438-30.8105 18.1152-21.6797L27.1484-12.6465C27.832-11.9629 28.0762-11.3281 28.0762-10.4004L28.0762 2.39258C28.0762 15.2832 34.5215 21.6797 47.3633 21.6797ZM51.0742 4.98047C45.7031 4.98047 44.8242 4.10156 44.7754-1.2207L44.7754-16.0156C44.7754-17.8223 44.2871-19.0918 43.0176-20.3613L32.5195-30.8594C28.7109-34.7168 28.7109-35.8398 32.5195-39.6484L43.0176-50.1465C44.2871-51.416 44.7754-52.7344 44.8242-54.4922L44.8242-69.2871C44.8242-74.7559 45.6055-75.5371 51.0742-75.5371L65.8691-75.5859C67.627-75.5859 68.9941-76.123 70.2148-77.3438L80.7129-87.8418C84.5215-91.6504 85.5957-91.6992 89.502-87.8418L100-77.3438C101.221-76.123 102.539-75.5859 104.346-75.5859L119.141-75.5371C124.463-75.5371 125.342-74.6582 125.342-69.2871L125.342-54.4922C125.439-52.7344 125.879-51.416 127.148-50.1465L137.695-39.6484C141.455-35.8398 141.455-34.7168 137.695-30.8594L127.148-20.3613C125.879-19.0918 125.439-17.8223 125.439-16.0156L125.342-1.2207C125.342 4.10156 124.463 4.98047 119.141 4.98047L104.346 5.07812C102.539 5.07812 101.318 5.41992 100 6.78711L89.502 17.334C85.6934 21.0938 84.5215 21.0938 80.7129 17.334L70.2148 6.78711C68.8477 5.41992 67.627 5.07812 65.8691 5.07812ZM78.6621-5.22461C81.5918-5.22461 84.2773-6.78711 86.0352-9.375L112.939-49.7559C114.111-51.5137 114.746-53.3203 114.746-54.9316C114.746-59.2285 110.938-62.3535 106.787-62.3535C103.955-62.3535 101.758-60.8398 99.8535-57.9102L78.5645-24.1211L69.5801-34.8633C67.8711-36.8652 65.9668-37.8418 63.5742-37.8418C59.2773-37.8418 55.7129-34.4727 55.7129-30.1758C55.7129-28.125 56.3965-26.5137 58.0078-24.5605L71.0449-9.17969C73.1445-6.68945 75.5859-5.22461 78.6621-5.22461Z"/>
  </g>
  <g id="Heavy-L" transform="matrix(1 0 0 1 2552.31 1556)">
   <path d="M46.4844 20.9473L59.6191 20.9473C60.6445 20.9473 61.3281 21.1914 62.1094 21.9727L71.4355 31.25C80.1758 39.9902 88.623 39.9414 97.3633 31.25L106.641 21.9727C107.422 21.1914 108.105 20.9473 109.131 20.9473L122.266 20.9473C134.619 20.9473 140.625 14.8926 140.625 2.58789L140.625-10.5469C140.625-11.5723 140.918-12.3047 141.65-13.0371L150.928-22.3633C159.668-31.1035 159.668-39.5508 150.928-48.291L141.65-57.5684C140.869-58.3496 140.625-59.0332 140.625-60.0586L140.625-73.1934C140.625-85.5469 134.619-91.5527 122.266-91.5527L109.131-91.5527C108.105-91.5527 107.373-91.8457 106.641-92.5781L97.3633-101.855C88.5742-110.693 80.2246-110.547 71.3867-101.807L62.1094-92.5781C61.377-91.8457 60.6445-91.5527 59.6191-91.5527L46.4844-91.5527C34.1309-91.5527 28.125-85.6445 28.125-73.1934L28.125-60.0586C28.125-59.0332 27.832-58.3008 27.0996-57.5684L17.8223-48.291C9.08203-39.5508 9.13086-31.1035 17.8223-22.3633L27.0996-13.0371C27.832-12.3047 28.125-11.5723 28.125-10.5469L28.125 2.58789C28.125 14.9414 34.1797 20.9473 46.4844 20.9473ZM49.3164 6.15234C43.8477 6.15234 42.9199 5.27344 42.9199-0.195312L42.9199-15.5273C42.9199-17.334 42.3828-18.6523 41.1133-19.9219L30.2246-30.7617C26.3672-34.668 26.3672-35.8887 30.2246-39.7461L41.1133-50.5859C42.3828-51.9043 42.9199-53.2227 42.9199-55.0293L42.9199-70.3613C42.9199-75.8789 43.7988-76.709 49.3164-76.709L64.6484-76.7578C66.4551-76.7578 67.8223-77.2461 69.043-78.5156L79.8828-89.4043C83.7891-93.2617 84.9609-93.3105 88.8672-89.4043L99.707-78.5156C100.977-77.2461 102.344-76.7578 104.102-76.7578L119.482-76.709C124.902-76.709 125.83-75.7812 125.83-70.3613L125.83-55.0293C125.879-53.2227 126.367-51.9043 127.637-50.5859L138.525-39.7461C142.383-35.8887 142.383-34.668 138.525-30.7617L127.637-19.9219C126.367-18.6523 125.879-17.334 125.879-15.5273L125.83-0.195312C125.83 5.27344 124.902 6.15234 119.482 6.15234L104.102 6.20117C102.344 6.20117 101.074 6.64062 99.707 8.00781L88.8672 18.8965C85.0098 22.7539 83.7891 22.7539 79.8828 18.8965L69.043 8.00781C67.7246 6.64062 66.4551 6.20117 64.6484 6.20117ZM77.832-5.27344C80.5176-5.27344 82.9102-6.68945 84.5215-8.98438L112.158-50.9277C113.184-52.5391 113.818-54.1992 113.818-55.7129C113.818-59.5703 110.4-62.3047 106.689-62.3047C104.199-62.3047 102.197-60.9863 100.537-58.3496L77.7344-22.168L67.627-34.4238C66.0156-36.377 64.3066-37.2559 62.1094-37.2559C58.252-37.2559 55.127-34.1797 55.127-30.3711C55.127-28.5156 55.7129-27.002 57.1777-25.293L70.9473-8.88672C72.9004-6.54297 75.0977-5.27344 77.832-5.27344Z"/>
  </g>
  <g id="Bold-L" transform="matrix(1 0 0 1 2256.38 1556)">
   <path d="M45.5078 20.1172L58.9844 20.1172C60.1562 20.1172 60.9375 20.4102 61.7676 21.2402L71.3867 30.8105C79.6875 39.1113 87.5 39.0625 95.8008 30.8105L105.371 21.2402C106.25 20.4102 107.031 20.1172 108.154 20.1172L121.68 20.1172C133.398 20.1172 139.014 14.5508 139.014 2.7832L139.014-10.6934C139.014-11.8652 139.307-12.6465 140.137-13.4766L149.658-23.0957C158.008-31.3965 157.959-39.209 149.658-47.5098L140.137-57.0801C139.307-57.959 139.014-58.7402 139.014-59.8633L139.014-73.3887C139.014-85.1074 133.398-90.7227 121.68-90.7227L108.154-90.7227C107.031-90.7227 106.201-91.0156 105.371-91.8457L95.8008-101.367C87.4512-109.766 79.7363-109.668 71.3867-101.367L61.7676-91.8457C60.9863-91.0156 60.1562-90.7227 58.9844-90.7227L45.5078-90.7227C33.7402-90.7227 28.1738-85.2051 28.1738-73.3887L28.1738-59.8633C28.1738-58.7402 27.832-57.9102 27.0508-57.0801L17.4805-47.5098C9.17969-39.209 9.22852-31.3965 17.4805-23.0957L27.0508-13.4766C27.832-12.6465 28.1738-11.8652 28.1738-10.6934L28.1738 2.7832C28.1738 14.502 33.7402 20.1172 45.5078 20.1172ZM47.3145 7.4707C41.7969 7.4707 40.8203 6.54297 40.8203 0.976562L40.8203-14.9902C40.8203-16.7969 40.2832-18.1152 38.9648-19.4336L27.6855-30.6641C23.7793-34.6191 23.7793-35.8887 27.6855-39.8438L38.9648-51.123C40.2832-52.3926 40.8203-53.7598 40.8203-55.5664L40.8203-71.5332C40.8203-77.1484 41.6992-78.0273 47.3145-78.0273L63.2812-78.0762C65.0879-78.0762 66.5039-78.5645 67.7734-79.8828L79.0039-91.1621C82.959-95.0684 84.1797-95.1172 88.1836-91.1621L99.4141-79.8828C100.684-78.5645 102.051-78.0762 103.906-78.0762L119.873-78.0273C125.391-78.0273 126.367-77.0508 126.367-71.5332L126.367-55.5664C126.367-53.7598 126.904-52.3926 128.223-51.123L139.502-39.8438C143.408-35.8887 143.408-34.6191 139.502-30.6641L128.223-19.4336C126.904-18.1152 126.367-16.7969 126.367-14.9902L126.367 0.976562C126.367 6.54297 125.391 7.4707 119.873 7.4707L103.906 7.51953C102.051 7.51953 100.732 7.95898 99.4141 9.32617L88.1836 20.6055C84.2285 24.5605 82.959 24.5605 79.0039 20.6055L67.7734 9.32617C66.4062 7.95898 65.0879 7.51953 63.2812 7.51953ZM76.9531-5.32227C79.3457-5.32227 81.3965-6.54297 82.8125-8.59375L111.279-52.2949C112.158-53.6621 112.793-55.1758 112.793-56.543C112.793-59.9121 109.814-62.2559 106.592-62.2559C104.492-62.2559 102.734-61.084 101.27-58.8379L76.8066-19.9707L65.4297-33.9844C63.9648-35.791 62.4023-36.5723 60.4492-36.5723C57.1289-36.5723 54.4434-33.8867 54.4434-30.5664C54.4434-28.9551 55.0293-27.5879 56.2012-26.0742L70.8984-8.54492C72.6074-6.39648 74.5117-5.32227 76.9531-5.32227Z"/>
  </g>
  <g id="Semibold-L" transform="matrix(1 0 0 1 1960.23 1556)">
   <path d="M44.7754 19.5312L58.5938 19.5312C59.8145 19.5312 60.6445 19.8242 61.5723 20.752L71.3379 30.4688C79.3457 38.4766 86.7676 38.4277 94.7266 30.4688L104.541 20.752C105.42 19.8242 106.299 19.5312 107.52 19.5312L121.289 19.5312C132.568 19.5312 137.891 14.2578 137.891 2.97852L137.891-10.8398C137.891-12.0605 138.232-12.8906 139.111-13.8184L148.828-23.584C156.836-31.5918 156.787-39.0137 148.828-46.9727L139.111-56.7871C138.184-57.666 137.891-58.5449 137.891-59.7656L137.891-73.5352C137.891-84.8145 132.617-90.1367 121.289-90.1367L107.52-90.1367C106.299-90.1367 105.42-90.4297 104.541-91.3574L94.7266-101.074C86.7188-109.131 79.3945-109.033 71.3379-101.025L61.5723-91.3574C60.6934-90.4785 59.8145-90.1367 58.5938-90.1367L44.7754-90.1367C33.4473-90.1367 28.2227-84.9121 28.2227-73.5352L28.2227-59.7656C28.2227-58.5449 27.8809-57.666 27.002-56.7871L17.2852-46.9727C9.27734-39.0137 9.32617-31.5918 17.2852-23.584L27.002-13.8184C27.8809-12.8906 28.2227-12.0605 28.2227-10.8398L28.2227 2.97852C28.2227 14.2578 33.4961 19.5312 44.7754 19.5312ZM45.9473 8.39844C40.3809 8.39844 39.3555 7.42188 39.3555 1.80664L39.3555-14.5996C39.3555-16.4062 38.8184-17.7734 37.5-19.0918L25.9277-30.6152C21.9727-34.6191 21.9727-35.9375 25.9277-39.9414L37.5-51.4648C38.8184-52.7344 39.3555-54.1016 39.3555-55.957L39.3555-72.3633C39.3555-78.0273 40.2832-78.9551 45.9473-78.9551L62.3535-78.9551C64.209-78.9551 65.5762-79.4922 66.8457-80.8105L78.3691-92.3828C82.373-96.3379 83.6914-96.3379 87.6953-92.3828L99.2188-80.8105C100.488-79.4922 101.904-78.9551 103.711-78.9551L120.117-78.9551C125.732-78.9551 126.709-77.9297 126.709-72.3633L126.709-55.957C126.709-54.1016 127.295-52.7344 128.564-51.4648L140.137-39.9414C144.092-35.9375 144.092-34.6191 140.137-30.6152L128.564-19.0918C127.295-17.7734 126.709-16.4062 126.709-14.5996L126.709 1.80664C126.709 7.42188 125.732 8.39844 120.117 8.39844L103.711 8.39844C101.904 8.39844 100.537 8.88672 99.2188 10.2539L87.6953 21.8262C83.6914 25.7812 82.373 25.7812 78.3691 21.8262L66.8457 10.2539C65.5273 8.88672 64.209 8.39844 62.3535 8.39844ZM76.3672-5.32227C78.5156-5.32227 80.3711-6.44531 81.6406-8.34961L110.645-53.1738C111.426-54.4434 112.061-55.8594 112.061-57.1777C112.061-60.1562 109.424-62.207 106.543-62.207C104.688-62.207 103.076-61.1816 101.807-59.1797L76.1719-18.457L63.916-33.6426C62.5488-35.4004 61.084-36.084 59.3262-36.084C56.3477-36.084 53.9551-33.6914 53.9551-30.7129C53.9551-29.248 54.4922-27.9297 55.5664-26.6113L70.8008-8.30078C72.4121-6.29883 74.1211-5.32227 76.3672-5.32227Z"/>
  </g>
  <g id="Medium-L" transform="matrix(1 0 0 1 1663.94 1556)">
   <path d="M44.2871 19.0918L58.252 19.0918C59.5215 19.0918 60.4492 19.4336 61.377 20.4102L71.3379 30.2734C79.1016 38.0371 86.1816 37.9883 93.9453 30.2734L103.857 20.4102C104.834 19.4336 105.713 19.0918 106.982 19.0918L120.996 19.0918C131.934 19.0918 137.012 14.0625 137.012 3.07617L137.012-10.8887C137.012-12.207 137.354-13.0859 138.281-14.0625L148.145-23.9746C155.957-31.7383 155.908-38.8184 148.145-46.582L138.281-56.4941C137.354-57.4707 137.012-58.3984 137.012-59.668L137.012-73.6328C137.012-84.5703 131.982-89.6484 120.996-89.6484L106.982-89.6484C105.713-89.6484 104.785-89.9902 103.857-90.9668L93.9453-100.83C86.1328-108.643 79.1016-108.594 71.2891-100.781L61.377-90.9668C60.498-90.0391 59.5215-89.6484 58.252-89.6484L44.2871-89.6484C33.252-89.6484 28.2227-84.668 28.2227-73.6328L28.2227-59.668C28.2227-58.3984 27.8809-57.4707 26.9531-56.4941L17.0898-46.582C9.32617-38.8184 9.375-31.7383 17.0898-23.9746L26.9531-14.0625C27.8809-13.0859 28.2227-12.207 28.2227-10.8887L28.2227 3.07617C28.2227 14.0137 33.3008 19.0918 44.2871 19.0918ZM44.9219 9.08203C39.3066 9.08203 38.2812 8.05664 38.2812 2.44141L38.2812-14.3066C38.2812-16.1133 37.6953-17.5293 36.377-18.8477L24.6094-30.5664C20.6055-34.6191 20.6055-35.9375 24.6094-39.9902L36.377-51.709C37.6953-53.0273 38.2812-54.3945 38.2812-56.25L38.2812-72.9492C38.2812-78.7109 39.209-79.6387 44.9219-79.6387L61.6699-79.6387C63.4766-79.6387 64.8926-80.1758 66.2109-81.4941L77.9297-93.3105C81.9824-97.3145 83.3008-97.3145 87.3535-93.3105L99.0723-81.4941C100.391-80.1758 101.758-79.6387 103.613-79.6387L120.312-79.6387C125.977-79.6387 127.002-78.6133 127.002-72.9492L127.002-56.25C127.002-54.3945 127.539-53.0273 128.857-51.709L140.625-39.9902C144.629-35.9375 144.629-34.6191 140.625-30.5664L128.857-18.8477C127.539-17.5293 127.002-16.1133 127.002-14.3066L127.002 2.44141C127.002 8.05664 125.977 9.08203 120.312 9.08203L103.613 9.08203C101.758 9.08203 100.391 9.61914 99.0723 10.9863L87.3535 22.7539C83.3008 26.7578 81.9824 26.7578 77.9297 22.7539L66.2109 10.9863C64.8438 9.61914 63.4766 9.08203 61.6699 9.08203ZM75.8789-5.37109C77.8809-5.37109 79.5898-6.34766 80.7617-8.1543L110.156-53.9062C110.889-55.0293 111.523-56.3477 111.523-57.6172C111.523-60.3516 109.082-62.207 106.494-62.207C104.834-62.207 103.32-61.2305 102.197-59.4238L75.6836-17.334L62.793-33.3984C61.4746-35.1074 60.1074-35.6934 58.4473-35.6934C55.7617-35.6934 53.6133-33.5449 53.6133-30.8105C53.6133-29.4922 54.1504-28.2227 55.0781-27.0508L70.752-8.10547C72.2656-6.20117 73.8281-5.37109 75.8789-5.37109Z"/>
  </g>
  <g id="Regular-L" transform="matrix(1 0 0 1 1367.76 1556)">
   <path d="M43.6035 18.5547L57.8125 18.5547C59.1797 18.5547 60.1562 18.8965 61.1816 19.9219L71.2891 29.9316C78.7598 37.4023 85.4004 37.3535 92.8711 29.9316L102.979 19.9219C104.004 18.8965 104.98 18.5547 106.348 18.5547L120.557 18.5547C131.104 18.5547 135.889 13.8184 135.889 3.22266L135.889-10.9863C135.889-12.3535 136.279-13.3301 137.256-14.3555L147.314-24.4629C154.785-31.9336 154.736-38.5742 147.314-46.0449L137.256-56.2012C136.279-57.1777 135.889-58.1543 135.889-59.5215L135.889-73.7793C135.889-84.2773 131.152-89.0625 120.557-89.0625L106.348-89.0625C104.98-89.0625 104.004-89.4531 102.979-90.4297L92.8711-100.488C85.4004-108.008 78.7598-107.959 71.2891-100.488L61.1816-90.4297C60.2051-89.4531 59.1797-89.0625 57.8125-89.0625L43.6035-89.0625C33.0078-89.0625 28.2715-84.375 28.2715-73.7793L28.2715-59.5215C28.2715-58.1543 27.8809-57.1777 26.9043-56.2012L16.8457-46.0449C9.375-38.5742 9.42383-31.9336 16.8457-24.4629L26.9043-14.3555C27.8809-13.3301 28.2715-12.3535 28.2715-10.9863L28.2715 3.22266C28.2715 13.7695 33.0078 18.5547 43.6035 18.5547ZM43.6035 10.0098C37.8906 10.0098 36.8164 8.93555 36.8164 3.22266L36.8164-13.916C36.8164-15.7715 36.2305-17.1875 34.9121-18.5059L22.8516-30.4688C18.8477-34.5703 18.8477-35.9375 22.8516-40.0391L34.9121-52.0508C36.2305-53.3691 36.8164-54.7852 36.8164-56.6406L36.8164-73.7793C36.8164-79.541 37.793-80.5176 43.6035-80.5176L60.7422-80.5176C62.5977-80.5176 63.9648-81.0547 65.2832-82.4219L77.2949-94.4824C81.3965-98.5352 82.7637-98.5352 86.8652-94.4824L98.877-82.4219C100.195-81.0547 101.611-80.5176 103.467-80.5176L120.557-80.5176C126.318-80.5176 127.344-79.4922 127.344-73.7793L127.344-56.6406C127.344-54.7852 127.93-53.3691 129.248-52.0508L141.309-40.0391C145.361-35.9375 145.361-34.5703 141.309-30.4688L129.248-18.5059C127.93-17.1875 127.344-15.7715 127.344-13.916L127.344 3.22266C127.344 8.93555 126.318 10.0098 120.557 10.0098L103.467 10.0098C101.611 10.0098 100.195 10.498 98.877 11.9141L86.8652 23.9258C82.7637 27.9785 81.3965 27.9785 77.2949 23.9258L65.2832 11.9141C63.9648 10.498 62.5977 10.0098 60.7422 10.0098ZM75.293-5.37109C77.0508-5.37109 78.5156-6.25 79.5898-7.86133L109.57-54.7852C110.156-55.8105 110.84-57.0312 110.84-58.2031C110.84-60.5957 108.691-62.1582 106.445-62.1582C105.029-62.1582 103.662-61.3281 102.686-59.7656L75.0488-15.8691L61.2793-33.0566C60.0586-34.7656 58.8379-35.2539 57.3242-35.2539C54.9805-35.2539 53.1738-33.3496 53.1738-30.957C53.1738-29.7852 53.6621-28.6133 54.3945-27.5879L70.7031-7.86133C72.0703-6.10352 73.4863-5.37109 75.293-5.37109Z"/>
  </g>
  <g id="Light-L" transform="matrix(1 0 0 1 1072.05 1556)">
   <path d="M42.1387 17.3828L57.1777 17.3828C58.5938 17.3828 59.668 17.7734 60.7422 18.8477L71.4355 29.4922C78.2227 36.2305 83.9355 36.1816 90.7227 29.4922L101.416 18.8477C102.49 17.7734 103.516 17.3828 104.98 17.3828L120.02 17.3828C129.59 17.3828 133.74 13.2812 133.74 3.66211L133.74-11.377C133.74-12.793 134.131-13.8672 135.205-14.9414L145.801-25.6348C152.588-32.4219 152.539-38.1348 145.801-44.9219L135.205-55.6152C134.131-56.6895 133.74-57.7148 133.74-59.1797L133.74-74.2188C133.74-83.7891 129.639-87.9395 120.02-87.9395L104.98-87.9395C103.516-87.9395 102.49-88.2812 101.416-89.4043L90.7227-100C83.8867-106.836 78.2227-106.836 71.3867-100L60.7422-89.4043C59.7168-88.3301 58.5938-87.9395 57.1777-87.9395L42.1387-87.9395C32.5195-87.9395 28.418-83.8379 28.418-74.2188L28.418-59.1797C28.418-57.7148 27.9785-56.6895 26.9531-55.6152L16.3574-44.9219C9.57031-38.1348 9.61914-32.4219 16.3574-25.6348L26.9531-14.9414C27.9785-13.8672 28.418-12.793 28.418-11.377L28.418 3.66211C28.418 13.2324 32.5195 17.3828 42.1387 17.3828ZM42.1387 10.8398C36.2305 10.8398 34.9609 9.57031 34.9609 3.66211L34.9609-13.6719C34.9609-15.4297 34.4238-16.7969 33.1543-18.0176L20.9473-30.2246C16.7969-34.4238 16.7969-36.1328 20.9473-40.2832L33.1543-52.4902C34.4238-53.7598 34.9609-55.0781 34.9609-56.8359L34.9609-74.2188C34.9609-80.1758 36.1816-81.3965 42.1387-81.3965L59.4727-81.3965C61.2305-81.3965 62.5977-81.8848 63.8184-83.1543L76.0254-95.4102C80.2246-99.5605 81.9336-99.5605 86.084-95.4102L98.291-83.1543C99.5605-81.8848 100.879-81.3965 102.637-81.3965L120.02-81.3965C125.879-81.3965 127.197-80.0781 127.197-74.2188L127.197-56.8359C127.197-55.0781 127.734-53.7598 128.955-52.4902L141.211-40.2832C145.361-36.1328 145.361-34.4238 141.211-30.2246L128.955-18.0176C127.734-16.7969 127.197-15.4297 127.197-13.6719L127.197 3.66211C127.197 9.57031 125.879 10.8398 120.02 10.8398L102.637 10.8398C100.879 10.8398 99.5605 11.3281 98.291 12.6465L86.084 24.8535C81.9336 29.0039 80.2246 29.0039 76.0254 24.8535L63.8184 12.6465C62.5977 11.3281 61.2305 10.8398 59.4727 10.8398ZM74.3164-5.41992C75.6836-5.41992 76.7578-6.05469 77.6367-7.27539L109.131-56.3477C109.57-57.1289 110.059-58.0566 110.059-58.9355C110.059-60.6934 108.398-62.0117 106.689-62.0117C105.615-62.0117 104.541-61.3281 103.76-60.1562L74.1699-13.5742L58.5449-32.373C57.6172-33.5938 56.6895-34.0332 55.5176-34.0332C53.7598-34.0332 52.2949-32.6172 52.2949-30.7129C52.2949-29.834 52.6855-28.9062 53.2715-28.0762L70.8496-7.27539C71.875-5.95703 72.9004-5.41992 74.3164-5.41992Z"/>
  </g>
  <g id="Thin-L" transform="matrix(1 0 0 1 776.686 1556)">
   <path d="M40.1855 15.8691L56.2988 15.8691C57.8613 15.8691 58.9844 16.2598 60.1562 17.4316L71.6309 28.8086C77.4902 34.6191 81.9824 34.6191 87.8418 28.8086L99.3164 17.4316C100.488 16.2598 101.611 15.8691 103.174 15.8691L119.287 15.8691C127.588 15.8691 130.859 12.5977 130.859 4.29688L130.859-11.8164C130.859-13.3789 131.348-14.502 132.471-15.6738L143.848-27.1484C149.658-33.0078 149.609-37.5 143.848-43.4082L132.471-54.834C131.348-56.0547 130.859-57.1289 130.859-58.6914L130.859-74.8535C130.859-83.1543 127.588-86.4258 119.287-86.4258L103.174-86.4258C101.611-86.4258 100.488-86.8164 99.3164-87.9883L87.8418-99.3652C81.8848-105.225 77.4902-105.322 71.5332-99.3652L60.1562-87.9883C59.0332-86.8652 57.8613-86.4258 56.2988-86.4258L40.1855-86.4258C31.8359-86.4258 28.5645-83.1543 28.5645-74.8535L28.5645-58.6914C28.5645-57.1289 28.125-56.0547 27.002-54.834L15.625-43.4082C9.81445-37.5 9.81445-33.0078 15.625-27.1484L27.002-15.6738C28.125-14.502 28.5645-13.3789 28.5645-11.8164L28.5645 4.29688C28.5645 12.5977 31.8359 15.8691 40.1855 15.8691ZM40.1855 11.9629C34.082 11.9629 32.5195 10.3516 32.5195 4.29688L32.5195-13.3789C32.5195-15.0391 31.9824-16.2598 30.8594-17.4316L18.3594-29.8828C14.0625-34.1797 14.0625-36.3281 18.3594-40.625L30.8594-53.125C31.9824-54.2969 32.5195-55.5176 32.5195-57.1289L32.5195-74.8535C32.5195-80.957 34.0332-82.5195 40.1855-82.5195L57.8613-82.5195C59.4727-82.5195 60.7422-83.0078 61.8652-84.1309L74.3652-96.6309C78.6621-100.928 80.8105-100.928 85.1074-96.6309L97.5586-84.1309C98.7305-83.0078 99.9512-82.5195 101.611-82.5195L119.287-82.5195C125.342-82.5195 126.953-80.9082 126.953-74.8535L126.953-57.1289C126.953-55.5176 127.441-54.2969 128.613-53.125L141.064-40.625C145.41-36.3281 145.41-34.1797 141.064-29.8828L128.613-17.4316C127.441-16.2598 126.953-15.0391 126.953-13.3789L126.953 4.29688C126.953 10.3516 125.342 11.9629 119.287 11.9629L101.611 11.9629C99.9512 11.9629 98.7305 12.4512 97.5586 13.623L85.1074 26.0742C80.8105 30.3711 78.6621 30.3711 74.3652 26.0742L61.8652 13.623C60.7422 12.4512 59.4727 11.9629 57.8613 11.9629ZM73.0469-5.41992C73.8281-5.41992 74.4629-5.81055 75-6.44531L108.594-58.4473C108.789-58.8379 109.033-59.4238 109.033-59.8633C109.033-60.8887 108.057-61.7676 107.031-61.7676C106.348-61.7676 105.713-61.3281 105.225-60.6934L72.9492-10.5957L54.9316-31.4941C54.4434-32.1289 53.8574-32.4219 53.0762-32.4219C52.0996-32.4219 51.123-31.5918 51.123-30.4199C51.123-29.8828 51.416-29.2969 51.8066-28.7598L71.0449-6.44531C71.6309-5.71289 72.168-5.41992 73.0469-5.41992Z"/>
  </g>
  <g id="Ultralight-L" transform="matrix(1 0 0 1 480.658 1556)">
   <path d="M39.1602 15.0879L55.8594 15.0879C57.4707 15.0879 58.6426 15.5273 59.8633 16.748L71.6797 28.5156C77.0996 33.8379 81.0059 33.8379 86.377 28.5156L98.2422 16.748C99.4629 15.5273 100.635 15.0879 102.246 15.0879L118.945 15.0879C126.562 15.0879 129.395 12.2559 129.395 4.58984L129.395-12.0605C129.395-13.7207 129.932-14.8438 131.055-16.0645L142.822-27.9297C148.145-33.3496 148.145-37.207 142.822-42.627L131.055-54.4434C129.932-55.7129 129.395-56.8359 129.395-58.4961L129.395-75.1465C129.395-82.8125 126.562-85.6445 118.945-85.6445L102.246-85.6445C100.635-85.6445 99.4629-86.0352 98.2422-87.2559L86.377-99.0234C80.9082-104.443 77.0996-104.541 71.6309-99.0234L59.8633-87.2559C58.6914-86.1328 57.4707-85.6445 55.8594-85.6445L39.1602-85.6445C31.543-85.6445 28.6621-82.7637 28.6621-75.1465L28.6621-58.4961C28.6621-56.8359 28.1738-55.7129 27.0508-54.4434L15.2832-42.627C9.96094-37.207 9.96094-33.3496 15.2832-27.9297L27.0508-16.0645C28.1738-14.8438 28.6621-13.7207 28.6621-12.0605L28.6621 4.58984C28.6621 12.2559 31.543 15.0879 39.1602 15.0879ZM39.1602 12.5488C33.0078 12.5488 31.25 10.791 31.25 4.58984L31.25-13.2324C31.25-14.8438 30.7617-16.0156 29.6875-17.0898L17.041-29.7363C12.6953-34.082 12.6953-36.4258 17.041-40.8203L29.6875-53.418C30.7617-54.541 31.25-55.7129 31.25-57.2754L31.25-75.1465C31.25-81.3965 32.9102-83.0566 39.1602-83.0566L57.0312-83.0566C58.5938-83.0566 59.7656-83.5449 60.8887-84.668L73.4863-97.2656C77.8809-101.611 80.2246-101.611 84.6191-97.2656L97.2168-84.668C98.291-83.5449 99.5117-83.0566 101.074-83.0566L118.945-83.0566C125.098-83.0566 126.855-81.2988 126.855-75.1465L126.855-57.2754C126.855-55.7129 127.344-54.541 128.418-53.418L141.016-40.8203C145.41-36.4258 145.41-34.082 141.016-29.7363L128.418-17.0898C127.344-16.0156 126.855-14.8438 126.855-13.2324L126.855 4.58984C126.855 10.791 125.098 12.5488 118.945 12.5488L101.074 12.5488C99.5117 12.5488 98.291 13.0371 97.2168 14.1113L84.6191 26.709C80.2246 31.1035 77.8809 31.1035 73.4863 26.709L60.8887 14.1113C59.7656 13.0371 58.5938 12.5488 57.0312 12.5488ZM72.4121-5.41992C72.9004-5.41992 73.2422-5.71289 73.6816-6.05469L108.301-59.5215C108.398-59.7656 108.496-60.1562 108.496-60.3516C108.496-60.9863 107.861-61.6699 107.227-61.6699C106.738-61.6699 106.299-61.3281 105.957-60.9863L72.3145-9.0332L53.0762-31.0059C52.7832-31.3477 52.3926-31.5918 51.8555-31.5918C51.2207-31.5918 50.5371-31.1035 50.5371-30.2734C50.5371-29.8828 50.7812-29.4922 51.0254-29.1016L71.1426-6.05469C71.5332-5.61523 71.8262-5.41992 72.4121-5.41992Z"/>
  </g>
  <g id="Black-M" transform="matrix(1 0 0 1 2867.04 1126)">
   <path d="M37.1094 9.27734L47.0215 9.27734C47.6562 9.27734 47.998 9.375 48.5352 9.86328L55.4688 16.8457C62.7441 24.1211 69.9707 24.1211 77.2461 16.8457L84.2285 9.86328C84.7168 9.375 85.0586 9.27734 85.6934 9.27734L95.6055 9.27734C105.811 9.27734 110.938 4.10156 110.938-6.10352L110.938-16.0156C110.938-16.6016 111.133-17.041 111.572-17.4805L118.555-24.4629C125.781-31.6895 125.781-38.9648 118.555-46.1914L111.572-53.1738C111.084-53.6621 110.938-54.0527 110.938-54.6387L110.938-64.5508C110.938-74.8047 105.762-79.9316 95.6055-79.9316L85.6934-79.9316C85.0586-79.9316 84.6191-80.127 84.2285-80.5176L77.2461-87.5C69.9219-94.8242 62.8418-94.6777 55.4688-87.4512L48.5352-80.5176C48.0957-80.127 47.6562-79.9316 47.0215-79.9316L37.1094-79.9316C26.9043-79.9316 21.7773-74.8535 21.7773-64.5508L21.7773-54.6387C21.7773-54.0527 21.582-53.6133 21.1426-53.1738L14.1602-46.1914C6.93359-38.9648 6.93359-31.6895 14.1602-24.4629L21.1426-17.4805C21.582-17.041 21.7773-16.6016 21.7773-16.0156L21.7773-6.10352C21.7773 4.15039 26.9531 9.27734 37.1094 9.27734ZM41.1621-5.17578C37.0605-5.17578 36.2793-5.95703 36.2305-10.0586L36.2305-20.8984C36.2305-22.2168 35.9375-23.1445 35.0098-24.0723L27.2461-31.8359C24.3164-34.7656 24.3164-35.7422 27.2461-38.6719L35.0098-46.4355C35.9375-47.3633 36.2305-48.291 36.2793-49.6094L36.2793-60.4492C36.2793-64.6484 36.9629-65.332 41.1621-65.332L52.002-65.3809C53.3203-65.3809 54.2969-65.7715 55.1758-66.6504L62.9395-74.4141C65.8691-77.3438 66.7969-77.3926 69.7754-74.4141L77.5391-66.6504C78.418-65.7715 79.3945-65.3809 80.7129-65.3809L91.5527-65.332C95.7031-65.332 96.4355-64.5996 96.4355-60.4492L96.4355-49.6094C96.4844-48.291 96.8262-47.3633 97.7539-46.4355L105.518-38.6719C108.398-35.7422 108.398-34.7656 105.518-31.8359L97.7539-24.0723C96.8262-23.1445 96.4844-22.2168 96.4844-20.8984L96.4355-10.0586C96.4355-5.95703 95.7031-5.17578 91.5527-5.17578L80.7129-5.12695C79.3945-5.12695 78.5645-4.88281 77.5391-3.90625L69.7754 3.85742C66.8457 6.78711 65.8691 6.78711 62.9395 3.85742L55.1758-3.90625C54.1992-4.88281 53.3203-5.12695 52.002-5.12695ZM61.5234-11.9629C63.9648-11.9629 66.2109-13.2812 67.6758-15.332L88.3789-45.752C89.4043-47.168 89.7949-48.6328 89.7949-49.8535C89.7949-53.5156 86.5723-56.2012 83.0078-56.2012C80.5176-56.2012 78.7109-54.9316 77.0996-52.4414L61.5234-28.0273L55.0781-35.1562C53.7598-36.5723 52.2949-37.4512 50.293-37.4512C46.6309-37.4512 43.5547-34.5703 43.5547-30.9082C43.5547-29.248 44.043-27.9785 45.5078-26.2695L55.2734-15.1367C56.9336-13.1836 58.9355-11.9629 61.5234-11.9629Z"/>
  </g>
  <g id="Heavy-M" transform="matrix(1 0 0 1 2570.84 1126)">
   <path d="M36.5234 8.74023L46.582 8.74023C47.3145 8.74023 47.7539 8.93555 48.291 9.47266L55.4199 16.5527C62.4023 23.5352 69.2871 23.5352 76.2695 16.5527L83.3984 9.47266C83.9355 8.93555 84.375 8.74023 85.1074 8.74023L95.166 8.74023C105.029 8.74023 109.912 3.85742 109.912-6.00586L109.912-16.0645C109.912-16.748 110.107-17.2852 110.645-17.7734L117.725-24.9023C124.707-31.8848 124.707-38.7695 117.725-45.752L110.645-52.832C110.059-53.418 109.912-53.8574 109.912-54.541L109.912-64.5996C109.912-74.5117 104.98-79.3945 95.166-79.3945L85.1074-79.3945C84.375-79.3945 83.8867-79.5898 83.3984-80.0781L76.2695-87.1582C69.2383-94.2383 62.5-94.1406 55.4199-87.1094L48.291-80.0781C47.8027-79.5898 47.3145-79.3945 46.582-79.3945L36.5234-79.3945C26.6602-79.3945 21.7773-74.5605 21.7773-64.5996L21.7773-54.541C21.7773-53.8574 21.582-53.3691 21.0938-52.832L13.9648-45.752C6.98242-38.7695 6.98242-31.8848 13.9648-24.9023L21.0938-17.7734C21.582-17.2852 21.7773-16.748 21.7773-16.0645L21.7773-6.00586C21.7773 3.85742 26.709 8.74023 36.5234 8.74023ZM39.5996-4.10156C35.4492-4.10156 34.7168-4.83398 34.668-9.0332L34.668-20.4102C34.668-21.7773 34.3262-22.7539 33.3496-23.6816L25.2441-31.7871C22.2656-34.7656 22.2656-35.7422 25.2441-38.7207L33.3496-46.8262C34.3262-47.8027 34.668-48.7793 34.7168-50.0977L34.7168-61.4746C34.7168-65.7227 35.4004-66.4062 39.5996-66.4062L51.0254-66.4551C52.3438-66.4551 53.3691-66.8457 54.2969-67.7734L62.4023-75.8789C65.3809-78.8086 66.3086-78.8574 69.2871-75.8789L77.3926-67.7734C78.3203-66.8457 79.3457-66.4551 80.7129-66.4551L92.0898-66.4062C96.2402-66.4062 96.9727-65.6738 96.9727-61.4746L96.9727-50.0977C97.0215-48.7793 97.3633-47.8027 98.3398-46.8262L106.445-38.7207C109.424-35.7422 109.424-34.7656 106.445-31.7871L98.3398-23.6816C97.3633-22.7539 97.0215-21.7773 97.0215-20.4102L96.9727-9.0332C96.9727-4.83398 96.2402-4.10156 92.0898-4.10156L80.7129-4.05273C79.3457-4.05273 78.418-3.80859 77.3926-2.7832L69.2871 5.32227C66.3574 8.30078 65.3809 8.30078 62.4023 5.32227L54.2969-2.7832C53.2715-3.80859 52.3438-4.05273 51.0254-4.05273ZM60.8887-11.9629C63.1348-11.9629 65.1855-13.1836 66.5039-15.0879L87.6465-46.6309C88.5254-47.9492 88.9648-49.3164 88.9648-50.4883C88.9648-53.8086 86.0352-56.2012 82.8613-56.2012C80.6641-56.2012 79.0039-55.0781 77.5391-52.7832L60.8398-26.4648L53.6621-34.8633C52.3926-36.3281 50.9766-37.1094 49.1211-37.1094C45.8496-37.1094 43.1152-34.4727 43.1152-31.2012C43.1152-29.6387 43.6035-28.4668 44.873-26.9531L55.127-14.9414C56.6895-13.0859 58.5449-11.9629 60.8887-11.9629Z"/>
  </g>
  <g id="Bold-M" transform="matrix(1 0 0 1 2274.69 1126)">
   <path d="M35.8887 8.20312L46.0938 8.20312C46.9238 8.20312 47.4609 8.34961 48.0957 8.98438L55.3223 16.2109C62.0605 22.9492 68.5059 22.9004 75.1953 16.2109L82.4707 8.98438C83.1055 8.34961 83.6426 8.20312 84.4238 8.20312L94.6777 8.20312C104.15 8.20312 108.74 3.56445 108.74-5.9082L108.74-16.1133C108.74-16.9434 108.984-17.5293 109.57-18.1152L116.797-25.3418C123.486-32.0801 123.486-38.5254 116.797-45.2148L109.57-52.4902C108.936-53.0762 108.74-53.6621 108.74-54.4434L108.74-64.6973C108.74-74.1699 104.15-78.7598 94.6777-78.7598L84.4238-78.7598C83.6426-78.7598 83.0566-79.0039 82.4707-79.5898L75.1953-86.8164C68.457-93.5547 62.1094-93.457 55.3223-86.7676L48.0957-79.5898C47.5098-79.0039 46.9238-78.7598 46.0938-78.7598L35.8887-78.7598C26.3672-78.7598 21.8262-74.2676 21.8262-64.6973L21.8262-54.4434C21.8262-53.6621 21.582-53.0762 20.9961-52.4902L13.7695-45.2148C7.03125-38.5254 7.08008-32.0801 13.7695-25.3418L20.9961-18.1152C21.582-17.5293 21.8262-16.9434 21.8262-16.1133L21.8262-5.9082C21.8262 3.56445 26.416 8.20312 35.8887 8.20312ZM37.8906-2.92969C33.6426-2.92969 32.959-3.66211 32.9102-7.86133L32.9102-19.873C32.9102-21.2891 32.5195-22.3145 31.543-23.291L23.0469-31.7871C20.0195-34.8145 20.0195-35.7422 23.0469-38.7695L31.543-47.2168C32.5195-48.2422 32.9102-49.2676 32.959-50.6348L32.959-62.6465C32.959-66.9434 33.5938-67.5781 37.8906-67.5781L49.9023-67.627C51.2695-67.627 52.3438-68.0176 53.3203-68.9941L61.7676-77.4902C64.7949-80.5176 65.7227-80.5176 68.75-77.4902L77.2461-68.9941C78.2227-68.0176 79.248-67.627 80.6641-67.627L92.6758-67.5781C96.875-67.5781 97.6074-66.8945 97.6074-62.6465L97.6074-50.6348C97.6562-49.2676 98.0469-48.2422 99.0234-47.2168L107.52-38.7695C110.547-35.7422 110.547-34.8145 107.52-31.7871L99.0234-23.291C98.0469-22.3145 97.6562-21.2891 97.6562-19.873L97.6074-7.86133C97.6074-3.66211 96.875-2.92969 92.6758-2.92969L80.6641-2.88086C79.248-2.88086 78.2715-2.58789 77.2461-1.51367L68.75 6.98242C65.7227 10.0098 64.7949 10.0098 61.7676 6.98242L53.3203-1.51367C52.2949-2.58789 51.2695-2.88086 49.9023-2.88086ZM60.2051-12.0117C62.2559-12.0117 64.0625-13.0859 65.2344-14.8438L86.7676-47.6074C87.5488-48.7793 88.0371-50.0488 88.0371-51.2207C88.0371-54.1504 85.498-56.2012 82.666-56.2012C80.8105-56.2012 79.2969-55.1758 78.0273-53.2227L60.1074-24.7559L52.0508-34.5703C50.8301-36.0352 49.5605-36.6699 47.9004-36.6699C44.9707-36.6699 42.627-34.375 42.627-31.4941C42.627-30.127 43.0664-28.9551 44.1406-27.6367L54.9805-14.7461C56.4453-12.9883 58.1055-12.0117 60.2051-12.0117Z"/>
  </g>
  <g id="Semibold-M" transform="matrix(1 0 0 1 1978.37 1126)">
   <path d="M35.4004 7.76367L45.8008 7.76367C46.6797 7.76367 47.2656 8.00781 47.9492 8.64258L55.2734 15.9668C61.7676 22.5098 67.9688 22.4609 74.4629 15.9668L81.8359 8.64258C82.4707 8.00781 83.1055 7.76367 83.9844 7.76367L94.3359 7.76367C103.516 7.76367 107.959 3.36914 107.959-5.81055L107.959-16.1621C107.959-17.041 108.203-17.6758 108.838-18.3105L116.113-25.6836C122.656-32.1777 122.656-38.3789 116.113-44.873L108.838-52.2461C108.154-52.8809 107.959-53.5156 107.959-54.3945L107.959-64.7461C107.959-73.9258 103.564-78.3691 94.3359-78.3691L83.9844-78.3691C83.1055-78.3691 82.4707-78.5645 81.8359-79.248L74.4629-86.5234C67.9199-93.1152 61.8164-93.0176 55.2734-86.5234L47.9492-79.248C47.3145-78.6133 46.6797-78.3691 45.8008-78.3691L35.4004-78.3691C26.1719-78.3691 21.8262-74.0234 21.8262-64.7461L21.8262-54.3945C21.8262-53.5156 21.582-52.8809 20.9473-52.2461L13.623-44.873C7.08008-38.3789 7.12891-32.1777 13.623-25.6836L20.9473-18.3105C21.582-17.6758 21.8262-17.041 21.8262-16.1621L21.8262-5.81055C21.8262 3.36914 26.2207 7.76367 35.4004 7.76367ZM36.7188-2.09961C32.4219-2.09961 31.7383-2.83203 31.6895-7.08008L31.6895-19.4824C31.6895-20.9473 31.2988-21.9727 30.2734-22.998L21.4844-31.7383C18.457-34.8145 18.457-35.6934 21.4844-38.7695L30.2734-47.5098C31.2988-48.5352 31.6895-49.6094 31.7383-51.0254L31.7383-63.4277C31.7383-67.7734 32.373-68.4082 36.7188-68.4082L49.1211-68.457C50.5371-68.457 51.6113-68.8477 52.6367-69.873L61.377-78.6621C64.4043-81.6895 65.332-81.6895 68.4082-78.6621L77.1484-69.873C78.125-68.8477 79.1992-68.457 80.6641-68.457L93.0664-68.4082C97.3145-68.4082 98.0469-67.7246 98.0469-63.4277L98.0469-51.0254C98.0469-49.6094 98.4863-48.5352 99.5117-47.5098L108.252-38.7695C111.279-35.6934 111.279-34.8145 108.252-31.7383L99.5117-22.998C98.4863-21.9727 98.0469-20.9473 98.0469-19.4824L98.0469-7.08008C98.0469-2.83203 97.3145-2.09961 93.0664-2.09961L80.6641-2.09961C79.1992-2.09961 78.1738-1.70898 77.1484-0.634766L68.4082 8.10547C65.332 11.1328 64.4043 11.1328 61.377 8.10547L52.6367-0.634766C51.6113-1.70898 50.5371-2.09961 49.1211-2.09961ZM59.7168-12.0605C61.6211-12.0605 63.2324-12.9883 64.3555-14.6973L86.1816-48.291C86.9141-49.4141 87.4023-50.5859 87.4023-51.7578C87.4023-54.3945 85.0586-56.2012 82.5684-56.2012C80.9082-56.2012 79.4922-55.2734 78.3691-53.5156L59.5703-23.584L50.9766-34.3262C49.8047-35.8398 48.5352-36.4258 47.0215-36.4258C44.3848-36.4258 42.2852-34.3262 42.2852-31.6895C42.2852-30.4199 42.7246-29.2969 43.6523-28.1738L54.8828-14.5996C56.2988-12.8906 57.8125-12.0605 59.7168-12.0605Z"/>
  </g>
  <g id="Medium-M" transform="matrix(1 0 0 1 1681.98 1126)">
   <path d="M35.0586 7.4707L45.5078 7.4707C46.4355 7.4707 47.1191 7.71484 47.8027 8.39844L55.2246 15.7715C61.6211 22.168 67.5781 22.1191 73.9258 15.7715L81.3477 8.39844C82.0312 7.71484 82.7148 7.4707 83.6426 7.4707L94.0918 7.4707C103.076 7.4707 107.324 3.27148 107.324-5.76172L107.324-16.2109C107.324-17.1387 107.617-17.8223 108.252-18.5059L115.625-25.9277C122.021-32.2754 121.973-38.2324 115.625-44.6289L108.252-52.0508C107.568-52.7344 107.324-53.418 107.324-54.3457L107.324-64.7949C107.324-73.7793 103.125-78.0273 94.0918-78.0273L83.6426-78.0273C82.7148-78.0273 82.0312-78.2715 81.3477-78.9551L73.9258-86.3281C67.5293-92.7246 61.6211-92.6758 55.2246-86.3281L47.8027-78.9551C47.1191-78.2715 46.4355-78.0273 45.5078-78.0273L35.0586-78.0273C26.0742-78.0273 21.8262-73.877 21.8262-64.7949L21.8262-54.3457C21.8262-53.418 21.582-52.7344 20.8984-52.0508L13.5254-44.6289C7.12891-38.2324 7.17773-32.2754 13.5254-25.9277L20.8984-18.5059C21.582-17.8223 21.8262-17.1387 21.8262-16.2109L21.8262-5.76172C21.8262 3.22266 26.0742 7.4707 35.0586 7.4707ZM35.791-1.46484C31.4941-1.46484 30.8105-2.19727 30.8105-6.49414L30.8105-19.1895C30.8105-20.6543 30.3711-21.7773 29.2969-22.8027L20.3613-31.7383C17.2852-34.8145 17.2852-35.6934 20.3613-38.7695L29.2969-47.7051C30.3711-48.7793 30.8105-49.8535 30.8105-51.3184L30.8105-64.0625C30.8105-68.4082 31.4453-69.043 35.791-69.043L48.5352-69.043C50-69.043 51.0742-69.4824 52.0996-70.5566L61.0352-79.4922C64.1602-82.5684 65.0391-82.5684 68.1152-79.4922L77.0508-70.5566C78.0762-69.4824 79.1992-69.043 80.6152-69.043L93.3594-69.043C97.6562-69.043 98.3398-68.3594 98.3398-64.0625L98.3398-51.3184C98.3887-49.8535 98.8281-48.7793 99.8535-47.7051L108.838-38.7695C111.865-35.6934 111.865-34.8145 108.838-31.7383L99.8535-22.8027C98.8281-21.7773 98.3887-20.6543 98.3887-19.1895L98.3398-6.49414C98.3398-2.19727 97.6562-1.46484 93.3594-1.46484L80.6152-1.46484C79.1992-1.46484 78.0762-1.07422 77.0508 0L68.1152 8.98438C65.0391 12.0117 64.1602 12.0117 61.0352 8.98438L52.0996 0C51.0742-1.07422 50-1.46484 48.5352-1.46484ZM59.375-12.0605C61.1328-12.0605 62.6465-12.9395 63.7207-14.5508L85.7422-48.8281C86.377-49.8535 86.9629-51.0254 86.9629-52.0996C86.9629-54.541 84.7656-56.2012 82.4707-56.2012C81.0059-56.2012 79.6387-55.3711 78.6133-53.7109L59.1797-22.6562L50.1465-34.1797C48.9746-35.6934 47.8027-36.1816 46.3379-36.1816C43.9453-36.1816 42.041-34.2773 42.041-31.8359C42.041-30.6641 42.4805-29.5898 43.3105-28.5156L54.834-14.502C56.1523-12.8418 57.5684-12.0605 59.375-12.0605Z"/>
  </g>
  <g id="Regular-M" transform="matrix(1 0 0 1 1385.66 1126)">
   <path d="M34.6191 7.08008L45.166 7.08008C46.1914 7.08008 46.9238 7.37305 47.6562 8.10547L55.1758 15.5762C61.3281 21.7773 67.041 21.7285 73.1934 15.5762L80.7129 8.10547C81.4453 7.37305 82.1777 7.08008 83.2031 7.08008L93.75 7.08008C102.49 7.08008 106.543 3.07617 106.543-5.71289L106.543-16.2598C106.543-17.2852 106.836-17.9688 107.568-18.75L114.99-26.2695C121.191-32.4219 121.143-38.0859 114.99-44.2871L107.568-51.8066C106.836-52.5391 106.543-53.2715 106.543-54.248L106.543-64.8438C106.543-73.5352 102.539-77.6367 93.75-77.6367L83.2031-77.6367C82.1777-77.6367 81.4453-77.8809 80.7129-78.6133L73.1934-86.084C67.041-92.2852 61.3281-92.2363 55.1758-86.084L47.6562-78.6133C46.9238-77.8809 46.1914-77.6367 45.166-77.6367L34.6191-77.6367C25.8789-77.6367 21.8262-73.6328 21.8262-64.8438L21.8262-54.248C21.8262-53.2715 21.582-52.5391 20.8496-51.8066L13.3789-44.2871C7.17773-38.0859 7.22656-32.4219 13.3789-26.2695L20.8496-18.75C21.582-17.9688 21.8262-17.2852 21.8262-16.2598L21.8262-5.71289C21.8262 3.02734 25.8789 7.08008 34.6191 7.08008ZM34.6191-0.683594C30.2734-0.683594 29.5898-1.36719 29.5898-5.71289L29.5898-18.8477C29.5898-20.3125 29.1504-21.4355 28.0762-22.5098L18.8477-31.6895C15.7715-34.8145 15.7715-35.6934 18.8477-38.8184L28.0762-47.998C29.1504-49.0723 29.5898-50.1953 29.5898-51.709L29.5898-64.8438C29.5898-69.2383 30.2246-69.873 34.6191-69.873L47.7539-69.873C49.2676-69.873 50.3906-70.2637 51.4648-71.3867L60.6445-80.6152C63.7695-83.6914 64.6484-83.6914 67.7246-80.6152L76.9531-71.3867C77.9785-70.2637 79.1504-69.873 80.6152-69.873L93.75-69.873C98.0957-69.873 98.7793-69.1895 98.7793-64.8438L98.7793-51.709C98.7793-50.1953 99.2676-49.0723 100.342-47.998L109.57-38.8184C112.646-35.6934 112.646-34.8145 109.57-31.6895L100.342-22.5098C99.2676-21.4355 98.7793-20.3125 98.7793-18.8477L98.7793-5.71289C98.7793-1.36719 98.0957-0.683594 93.75-0.683594L80.6152-0.683594C79.1504-0.683594 77.9785-0.244141 76.9531 0.878906L67.7246 10.1074C64.6484 13.1836 63.7695 13.1836 60.6445 10.1074L51.4648 0.878906C50.3906-0.244141 49.2676-0.683594 47.7539-0.683594ZM58.8867-12.1094C60.498-12.1094 61.8652-12.8906 62.8418-14.3555L85.1562-49.5117C85.6934-50.4395 86.3281-51.5137 86.3281-52.6367C86.3281-54.7852 84.375-56.2012 82.373-56.2012C81.1035-56.2012 79.8828-55.4688 78.9551-54.0039L58.6914-21.4844L49.0723-33.9355C47.9004-35.498 46.8262-35.9375 45.5078-35.9375C43.3594-35.9375 41.6992-34.2285 41.6992-32.0312C41.6992-31.0059 42.1387-29.9316 42.8223-29.0039L54.7363-14.3555C55.957-12.7441 57.2754-12.1094 58.8867-12.1094Z"/>
  </g>
  <g id="Light-M" transform="matrix(1 0 0 1 1089.85 1126)">
   <path d="M33.3008 6.05469L44.5801 6.05469C45.7031 6.05469 46.4355 6.34766 47.2656 7.12891L55.3223 15.1367C60.8398 20.7031 65.7227 20.6543 71.2402 15.1367L79.2969 7.12891C80.127 6.34766 80.8594 6.05469 81.9824 6.05469L93.2617 6.05469C101.123 6.05469 104.59 2.58789 104.59-5.27344L104.59-16.5527C104.59-17.6758 104.932-18.457 105.713-19.2383L113.672-27.2949C119.238-32.8125 119.189-37.6953 113.672-43.2617L105.713-51.2695C104.932-52.0996 104.59-52.8809 104.59-53.9551L104.59-65.2344C104.59-73.0957 101.123-76.5625 93.2617-76.5625L81.9824-76.5625C80.8594-76.5625 80.127-76.8555 79.2969-77.6855L71.2402-85.6445C65.6738-91.2109 60.8398-91.2109 55.2734-85.6445L47.2656-77.6855C46.4844-76.9043 45.7031-76.5625 44.5801-76.5625L33.3008-76.5625C25.4395-76.5625 21.9727-73.1445 21.9727-65.2344L21.9727-53.9551C21.9727-52.8809 21.6309-52.0996 20.8496-51.2695L12.8906-43.2617C7.32422-37.6953 7.37305-32.8125 12.8906-27.2949L20.8496-19.2383C21.6309-18.457 21.9727-17.6758 21.9727-16.5527L21.9727-5.27344C21.9727 2.58789 25.4395 6.05469 33.3008 6.05469ZM33.3008 0.0976562C28.8086 0.0976562 27.9297-0.78125 27.9297-5.27344L27.9297-18.6523C27.9297-20.0195 27.4902-21.0938 26.5137-22.1191L17.0898-31.4941C13.916-34.668 13.916-35.8398 17.0898-39.0625L26.5137-48.4375C27.4902-49.4141 27.9297-50.4883 27.9297-51.9043L27.9297-65.2344C27.9297-69.7754 28.7598-70.6055 33.3008-70.6055L46.6309-70.6055C48.0469-70.6055 49.1211-70.9961 50.1465-72.0703L59.4727-81.4453C62.6953-84.6191 63.8672-84.6191 67.0898-81.4453L76.416-72.0703C77.4414-70.9961 78.5156-70.6055 79.9316-70.6055L93.2617-70.6055C97.7539-70.6055 98.6328-69.7266 98.6328-65.2344L98.6328-51.9043C98.6328-50.4883 99.0723-49.4141 100.049-48.4375L109.473-39.0625C112.646-35.8398 112.646-34.668 109.473-31.4941L100.049-22.1191C99.0723-21.0938 98.6328-20.0195 98.6328-18.6523L98.6328-5.27344C98.6328-0.78125 97.7539 0.0976562 93.2617 0.0976562L79.9316 0.0976562C78.5156 0.0976562 77.4414 0.488281 76.416 1.51367L67.0898 10.9375C63.8672 14.1113 62.6953 14.1113 59.4727 10.9375L50.1465 1.51367C49.1211 0.488281 48.0469 0.0976562 46.6309 0.0976562ZM58.0566-12.1094C59.2773-12.1094 60.3027-12.6953 61.0352-13.8184L84.7656-50.9277C85.2051-51.6113 85.6445-52.4414 85.6445-53.2715C85.6445-54.9316 84.1309-56.0547 82.5684-56.0547C81.5918-56.0547 80.6641-55.4688 79.9316-54.3945L57.8613-19.4824L46.6309-33.3496C45.752-34.4727 44.873-34.8145 43.8477-34.8145C42.2363-34.8145 40.918-33.5449 40.918-31.8359C40.918-31.0059 41.2598-30.1758 41.7969-29.4434L54.834-13.8184C55.8105-12.5977 56.7871-12.1094 58.0566-12.1094Z"/>
  </g>
  <g id="Thin-M" transform="matrix(1 0 0 1 794.337 1126)">
   <path d="M31.543 4.6875L43.7988 4.6875C45.0195 4.6875 45.8496 5.0293 46.7285 5.9082L55.4688 14.5508C60.2051 19.2383 63.9648 19.2383 68.7012 14.5508L77.4414 5.9082C78.3203 5.0293 79.1504 4.6875 80.3711 4.6875L92.627 4.6875C99.3164 4.6875 102.051 2.00195 102.051-4.73633L102.051-16.9922C102.051-18.1641 102.393-19.043 103.223-19.9219L111.914-28.6621C116.602-33.3984 116.602-37.1582 111.914-41.8945L103.223-50.5859C102.393-51.5137 102.051-52.3438 102.051-53.5156L102.051-65.7715C102.051-72.5098 99.3164-75.2441 92.627-75.2441L80.3711-75.2441C79.1504-75.2441 78.3203-75.5371 77.4414-76.416L68.7012-85.0586C63.916-89.8438 60.2051-89.8926 55.4199-85.0586L46.7285-76.416C45.8984-75.5859 45.0195-75.2441 43.7988-75.2441L31.543-75.2441C24.8535-75.2441 22.1191-72.5098 22.1191-65.7715L22.1191-53.5156C22.1191-52.3438 21.7773-51.5137 20.8984-50.5859L12.2559-41.8945C7.56836-37.1582 7.56836-33.3984 12.2559-28.6621L20.8984-19.9219C21.7773-19.043 22.1191-18.1641 22.1191-16.9922L22.1191-4.73633C22.1191 1.95312 24.8535 4.6875 31.543 4.6875ZM31.543 1.07422C26.9043 1.07422 25.7324-0.0976562 25.7324-4.73633L25.7324-18.3594C25.7324-19.6777 25.3418-20.6543 24.4141-21.582L14.7949-31.1523C11.4746-34.4727 11.4746-36.0352 14.7949-39.3555L24.4141-48.9746C25.3418-49.8535 25.7324-50.8301 25.7324-52.1484L25.7324-65.7715C25.7324-70.5078 26.8555-71.6309 31.543-71.6309L45.166-71.6309C46.4844-71.6309 47.4609-72.0215 48.3887-72.9492L58.0078-82.5684C61.2793-85.8398 62.8418-85.8398 66.1621-82.5684L75.7812-72.9492C76.709-72.0215 77.6855-71.6309 78.9551-71.6309L92.627-71.6309C97.2656-71.6309 98.4375-70.459 98.4375-65.7715L98.4375-52.1484C98.4375-50.8301 98.8281-49.8535 99.7559-48.9746L109.375-39.3555C112.646-36.0352 112.646-34.4727 109.375-31.1523L99.7559-21.582C98.8281-20.6543 98.4375-19.6777 98.4375-18.3594L98.4375-4.73633C98.4375-0.0976562 97.2656 1.07422 92.627 1.07422L78.9551 1.07422C77.6855 1.07422 76.709 1.46484 75.7812 2.39258L66.1621 12.0117C62.8418 15.332 61.2793 15.332 58.0078 12.0117L48.3887 2.39258C47.4609 1.46484 46.4844 1.07422 45.166 1.07422ZM56.8848-12.1094C57.6172-12.1094 58.2031-12.5 58.6914-13.0859L84.2773-52.7832C84.4727-53.1738 84.7168-53.7109 84.7168-54.1016C84.7168-55.0781 83.7891-55.8594 82.9102-55.8594C82.2754-55.8594 81.6895-55.4688 81.25-54.834L56.7871-16.748L43.3594-32.5195C42.8711-33.1543 42.334-33.3984 41.6504-33.3984C40.7227-33.3984 39.8926-32.6172 39.8926-31.5918C39.8926-31.0547 40.1367-30.5664 40.4785-30.0781L55.0293-13.0859C55.5664-12.4023 56.1035-12.1094 56.8848-12.1094Z"/>
  </g>
  <g id="Ultralight-M" transform="matrix(1 0 0 1 498.237 1126)">
   <path d="M30.6641 4.00391L43.4082 4.00391C44.6777 4.00391 45.5566 4.3457 46.4844 5.27344L55.5176 14.2578C59.8633 18.5059 63.0371 18.5059 67.3828 14.2578L76.4648 5.27344C77.3926 4.3457 78.2715 4.00391 79.541 4.00391L92.2852 4.00391C98.3887 4.00391 100.732 1.66016 100.732-4.44336L100.732-17.1875C100.732-18.457 101.123-19.3359 102.002-20.2637L110.986-29.3457C115.234-33.6426 115.234-36.8652 110.986-41.2109L102.002-50.2441C101.123-51.1719 100.732-52.0508 100.732-53.3203L100.732-66.0645C100.732-72.2168 98.3887-74.5117 92.2852-74.5117L79.541-74.5117C78.2715-74.5117 77.3926-74.8535 76.4648-75.7812L67.3828-84.7656C62.9883-89.1113 59.8633-89.1602 55.4688-84.7656L46.4844-75.7812C45.6055-74.9023 44.6777-74.5117 43.4082-74.5117L30.6641-74.5117C24.5117-74.5117 22.2168-72.2168 22.2168-66.0645L22.2168-53.3203C22.2168-52.0508 21.8262-51.1719 20.9473-50.2441L11.9629-41.2109C7.66602-36.8652 7.66602-33.6426 11.9629-29.3457L20.9473-20.2637C21.8262-19.3359 22.2168-18.457 22.2168-17.1875L22.2168-4.44336C22.2168 1.66016 24.5117 4.00391 30.6641 4.00391ZM30.6641 1.61133C25.9277 1.61133 24.6094 0.292969 24.6094-4.44336L24.6094-18.2129C24.6094-19.4824 24.2188-20.4102 23.3398-21.2891L13.623-31.0059C10.2539-34.375 10.2539-36.1328 13.623-39.502L23.3398-49.2676C24.2188-50.0977 24.6094-51.0254 24.6094-52.2949L24.6094-66.0645C24.6094-70.8984 25.8301-72.1191 30.6641-72.1191L44.4336-72.1191C45.7031-72.1191 46.6309-72.5098 47.4609-73.3887L57.2266-83.1055C60.5957-86.4746 62.3535-86.4746 65.7227-83.1055L75.4395-73.3887C76.3184-72.5098 77.2461-72.1191 78.4668-72.1191L92.2852-72.1191C97.0215-72.1191 98.3398-70.8008 98.3398-66.0645L98.3398-52.2949C98.3398-51.0254 98.7305-50.0977 99.5605-49.2676L109.326-39.502C112.695-36.1328 112.695-34.375 109.326-31.0059L99.5605-21.2891C98.7305-20.4102 98.3398-19.4824 98.3398-18.2129L98.3398-4.44336C98.3398 0.292969 97.0215 1.61133 92.2852 1.61133L78.4668 1.61133C77.2461 1.61133 76.3184 2.00195 75.4395 2.83203L65.7227 12.5977C62.3535 15.9668 60.5957 15.9668 57.2266 12.5977L47.4609 2.83203C46.6309 2.00195 45.7031 1.61133 44.4336 1.61133ZM56.2988-12.1582C56.7871-12.1582 57.1289-12.4023 57.5195-12.7441L84.0332-53.7109C84.1309-53.9551 84.2285-54.2969 84.2285-54.541C84.2285-55.127 83.6426-55.7617 83.0566-55.7617C82.6172-55.7617 82.2266-55.4688 81.8848-55.0781L56.25-15.3809L41.6992-32.1289C41.4062-32.4707 41.0645-32.666 40.5762-32.666C39.9902-32.666 39.3555-32.1777 39.3555-31.4453C39.3555-31.1035 39.5508-30.7129 39.7949-30.3711L55.127-12.7441C55.4688-12.3047 55.7617-12.1582 56.2988-12.1582Z"/>
  </g>
  <g id="Black-S" transform="matrix(1 0 0 1 2881.45 696)">
   <path d="M29.0527-0.390625L36.8164-0.390625C37.3047-0.390625 37.5977-0.292969 37.9883 0.0976562L43.457 5.56641C49.1211 11.2305 54.7852 11.2305 60.4492 5.56641L65.918 0.0976562C66.3086-0.292969 66.6016-0.390625 67.0898-0.390625L74.8535-0.390625C82.8613-0.390625 86.8652-4.44336 86.8652-12.4023L86.8652-20.166C86.8652-20.6543 87.0117-20.9961 87.3535-21.3379L92.8223-26.8066C98.4863-32.4707 98.4863-38.1348 92.8223-43.7988L87.3535-49.2676C86.9629-49.6582 86.8652-49.9512 86.8652-50.4395L86.8652-58.2031C86.8652-66.2109 82.8125-70.2148 74.8535-70.2148L67.0898-70.2148C66.6016-70.2148 66.2598-70.3613 65.918-70.7031L60.4492-76.1719C54.7363-81.8848 49.2188-81.7871 43.457-76.123L37.9883-70.7031C37.6465-70.3613 37.3047-70.2148 36.8164-70.2148L29.0527-70.2148C21.0449-70.2148 17.041-66.2598 17.041-58.2031L17.041-50.4395C17.041-49.9512 16.8945-49.6094 16.5527-49.2676L11.084-43.7988C5.41992-38.1348 5.41992-32.4707 11.084-26.8066L16.5527-21.3379C16.8945-20.9961 17.041-20.6543 17.041-20.166L17.041-12.4023C17.041-4.39453 21.0938-0.390625 29.0527-0.390625ZM32.1289-11.6211C28.9062-11.6211 28.3203-12.207 28.2715-15.4297L28.2715-23.9746C28.2715-25 28.0273-25.7324 27.2949-26.4648L21.1914-32.5684C18.8965-34.8633 18.8965-35.6445 21.1914-37.9395L27.2949-44.043C28.0273-44.7754 28.2715-45.5078 28.3203-46.5332L28.3203-55.0781C28.3203-58.3496 28.8574-58.8867 32.1289-58.8867L40.6738-58.9355C41.6992-58.9355 42.4805-59.2285 43.1641-59.9121L49.2676-66.0156C51.5625-68.3105 52.2949-68.3594 54.6387-66.0156L60.7422-59.9121C61.4258-59.2285 62.207-58.9355 63.2324-58.9355L71.7773-58.8867C75-58.8867 75.5859-58.3008 75.5859-55.0781L75.5859-46.5332C75.6348-45.5078 75.8789-44.7754 76.6113-44.043L82.7148-37.9395C85.0098-35.6445 85.0098-34.8633 82.7148-32.5684L76.6113-26.4648C75.8789-25.7324 75.6348-25 75.6348-23.9746L75.5859-15.4297C75.5859-12.207 75-11.6211 71.7773-11.6211L63.2324-11.5723C62.207-11.5723 61.5234-11.377 60.7422-10.5957L54.6387-4.49219C52.3438-2.19727 51.5625-2.19727 49.2676-4.49219L43.1641-10.5957C42.3828-11.377 41.6992-11.5723 40.6738-11.5723ZM48.1445-16.9922C50.0488-16.9922 51.8066-18.0176 52.9297-19.6289L69.1895-43.5059C69.9707-44.6289 70.2637-45.752 70.2637-46.7285C70.2637-49.5605 67.7734-51.6602 64.9902-51.6602C63.0859-51.6602 61.6699-50.6836 60.4004-48.7305L48.1445-29.4922L43.0664-35.1562C42.041-36.2793 40.8691-36.9629 39.3066-36.9629C36.4746-36.9629 34.082-34.7168 34.082-31.8848C34.082-30.5664 34.4727-29.5898 35.5957-28.2715L43.2617-19.4824C44.5801-17.9688 46.1426-16.9922 48.1445-16.9922Z"/>
  </g>
  <g id="Heavy-S" transform="matrix(1 0 0 1 2585.03 696)">
   <path d="M28.7598-0.683594L36.5723-0.683594C37.1094-0.683594 37.4512-0.537109 37.8906-0.0976562L43.4082 5.37109C48.9258 10.9375 54.3945 10.9375 59.9121 5.37109L65.4297-0.0976562C65.8691-0.537109 66.2109-0.683594 66.7969-0.683594L74.5605-0.683594C82.4219-0.683594 86.2793-4.58984 86.2793-12.3535L86.2793-20.166C86.2793-20.7031 86.4258-21.0938 86.8164-21.4844L92.334-27.002C97.9004-32.5684 97.8516-38.0371 92.334-43.5547L86.8164-49.0723C86.4258-49.5117 86.2793-49.8535 86.2793-50.3906L86.2793-58.2031C86.2793-66.0156 82.373-69.9219 74.5605-69.9219L66.7969-69.9219C66.2109-69.9219 65.8203-70.0684 65.4297-70.459L59.9121-75.9766C54.3457-81.543 49.0234-81.4453 43.4082-75.9277L37.8906-70.459C37.5-70.0684 37.1094-69.9219 36.5723-69.9219L28.7598-69.9219C20.8984-69.9219 17.041-66.1133 17.041-58.2031L17.041-50.3906C17.041-49.8535 16.8945-49.4629 16.5039-49.0723L10.9863-43.5547C5.46875-38.0371 5.46875-32.5684 10.9863-27.002L16.5039-21.4844C16.8945-21.0938 17.041-20.7031 17.041-20.166L17.041-12.3535C17.041-4.54102 20.9473-0.683594 28.7598-0.683594ZM31.1035-10.8887C27.832-10.8887 27.2949-11.4258 27.2461-14.6973L27.2461-23.6328C27.2461-24.707 27.002-25.4883 26.2207-26.2207L19.873-32.5684C17.5781-34.9121 17.5781-35.5957 19.873-37.9395L26.2207-44.2871C27.002-45.0195 27.2461-45.8008 27.2949-46.875L27.2949-55.8105C27.2949-59.1309 27.7832-59.6191 31.1035-59.6191L40.0391-59.668C41.1133-59.668 41.8945-59.9609 42.627-60.6934L48.9746-67.041C51.3184-69.3359 52.002-69.3848 54.3457-67.041L60.6934-60.6934C61.4258-59.9609 62.207-59.668 63.2812-59.668L72.2168-59.6191C75.4883-59.6191 76.0254-59.082 76.0254-55.8105L76.0254-46.875C76.0742-45.8008 76.3184-45.0195 77.0996-44.2871L83.4473-37.9395C85.791-35.5957 85.791-34.9121 83.4473-32.5684L77.0996-26.2207C76.3184-25.4883 76.0742-24.707 76.0742-23.6328L76.0254-14.6973C76.0254-11.4258 75.4883-10.8887 72.2168-10.8887L63.2812-10.8398C62.207-10.8398 61.4746-10.6445 60.6934-9.81445L54.3457-3.4668C52.002-1.17188 51.3184-1.17188 48.9746-3.4668L42.627-9.81445C41.8457-10.6445 41.1133-10.8398 40.0391-10.8398ZM47.7539-16.9922C49.5605-16.9922 51.1719-17.9688 52.2461-19.5312L68.6523-44.043C69.3848-45.0684 69.7266-46.1914 69.7266-47.168C69.7266-49.8047 67.3828-51.6602 64.8438-51.6602C63.1348-51.6602 61.7676-50.7812 60.6445-48.9746L47.7051-28.5645L42.2363-35.0098C41.2109-36.1816 40.0879-36.8164 38.623-36.8164C35.9863-36.8164 33.8379-34.7168 33.8379-32.1289C33.8379-30.8594 34.2285-29.9316 35.2051-28.7109L43.1641-19.3848C44.4336-17.9199 45.8984-16.9922 47.7539-16.9922Z"/>
  </g>
  <g id="Bold-S" transform="matrix(1 0 0 1 2288.64 696)">
   <path d="M28.418-0.976562L36.2305-0.976562C36.8652-0.976562 37.3047-0.830078 37.7441-0.390625L43.3105 5.17578C48.7305 10.5957 53.9551 10.5469 59.375 5.17578L64.9414-0.390625C65.3809-0.830078 65.8203-0.976562 66.4062-0.976562L74.2676-0.976562C81.8848-0.976562 85.6445-4.73633 85.6445-12.3535L85.6445-20.2148C85.6445-20.8008 85.791-21.2402 86.2305-21.6797L91.7969-27.2461C97.2168-32.666 97.168-37.8906 91.7969-43.3105L86.2305-48.877C85.791-49.3164 85.6445-49.7559 85.6445-50.3906L85.6445-58.2031C85.6445-65.8203 81.8848-69.5801 74.2676-69.5801L66.4062-69.5801C65.8203-69.5801 65.3809-69.7266 64.9414-70.2148L59.375-75.7324C53.9551-81.1523 48.7793-81.1035 43.3105-75.6836L37.7441-70.2148C37.3047-69.7266 36.8652-69.5801 36.2305-69.5801L28.418-69.5801C20.752-69.5801 17.041-65.918 17.041-58.2031L17.041-50.3906C17.041-49.7559 16.8457-49.3164 16.4062-48.877L10.8887-43.3105C5.46875-37.8906 5.51758-32.666 10.8887-27.2461L16.4062-21.6797C16.8457-21.2402 17.041-20.8008 17.041-20.2148L17.041-12.3535C17.041-4.73633 20.8008-0.976562 28.418-0.976562ZM29.9316-10.0586C26.6602-10.0586 26.1719-10.5957 26.123-13.8672L26.123-23.2422C26.123-24.3652 25.8301-25.1465 25-25.9766L18.4082-32.5684C16.0645-34.9121 16.0645-35.5957 18.4082-37.9395L25-44.5312C25.8301-45.3613 26.123-46.1426 26.1719-47.2656L26.1719-56.6406C26.1719-59.9609 26.6113-60.4492 29.9316-60.4492L39.3066-60.4492C40.4297-60.4492 41.2598-60.791 42.041-61.5723L48.6816-68.2129C51.0254-70.5078 51.6602-70.5566 54.0039-68.2129L60.6445-61.5723C61.377-60.791 62.2559-60.4492 63.3789-60.4492L72.7539-60.4492C76.0254-60.4492 76.5137-59.9121 76.5137-56.6406L76.5137-47.2656C76.5625-46.1426 76.8555-45.3613 77.6367-44.5312L84.2773-37.9395C86.6211-35.5957 86.6211-34.9121 84.2773-32.5684L77.6367-25.9766C76.8555-25.1465 76.5625-24.3652 76.5625-23.2422L76.5137-13.8672C76.5137-10.5957 76.0254-10.0586 72.7539-10.0586L63.3789-10.0586C62.2559-10.0586 61.4258-9.76562 60.6445-8.93555L54.0039-2.29492C51.6602 0 51.0254 0 48.6816-2.29492L42.041-8.93555C41.2109-9.76562 40.4297-10.0586 39.3066-10.0586ZM47.3633-17.041C49.0234-17.041 50.5371-17.9199 51.5137-19.3848L68.0176-44.6289C68.7012-45.6055 69.0918-46.6309 69.0918-47.6562C69.0918-50.0488 66.9922-51.709 64.6973-51.709C63.1836-51.709 61.9141-50.8789 60.8887-49.2676L47.2656-27.4902L41.3574-34.8633C40.332-36.084 39.209-36.6211 37.8418-36.6211C35.498-36.6211 33.5449-34.7168 33.5449-32.373C33.5449-31.25 33.9355-30.2734 34.8145-29.1992L43.0176-19.3359C44.2383-17.8223 45.6055-17.041 47.3633-17.041Z"/>
  </g>
  <g id="Semibold-S" transform="matrix(1 0 0 1 1992.14 696)">
   <path d="M28.1738-1.2207L36.0352-1.2207C36.7188-1.2207 37.1582-1.02539 37.6465-0.537109L43.2617 5.0293C48.5352 10.3516 53.6621 10.3027 58.9844 5.0293L64.5508-0.537109C65.0391-1.02539 65.5273-1.2207 66.1621-1.2207L74.0723-1.2207C81.543-1.2207 85.2051-4.83398 85.2051-12.3047L85.2051-20.2148C85.2051-20.8496 85.3516-21.3379 85.8398-21.8262L91.4062-27.3926C96.7285-32.7148 96.6797-37.8418 91.4062-43.1152L85.8398-48.7305C85.3516-49.2188 85.2051-49.6582 85.2051-50.3418L85.2051-58.2031C85.2051-65.6738 81.543-69.3359 74.0723-69.3359L66.1621-69.3359C65.5273-69.3359 65.0391-69.5312 64.5508-70.0195L58.9844-75.5371C53.6621-80.9082 48.584-80.8594 43.2617-75.5371L37.6465-70.0195C37.207-69.5312 36.7188-69.3359 36.0352-69.3359L28.1738-69.3359C20.6543-69.3359 17.041-65.7715 17.041-58.2031L17.041-50.3418C17.041-49.6582 16.8457-49.2188 16.3574-48.7305L10.8398-43.1152C5.46875-37.8418 5.51758-32.7148 10.8398-27.3926L16.3574-21.8262C16.8457-21.3379 17.041-20.8496 17.041-20.2148L17.041-12.3047C17.041-4.83398 20.6543-1.2207 28.1738-1.2207ZM29.1504-9.52148C25.8301-9.52148 25.3906-9.96094 25.3418-13.2812L25.3418-22.9492C25.3418-24.1211 25-24.9512 24.1699-25.7812L17.3828-32.5684C15.0391-34.9609 15.0391-35.5469 17.3828-37.9395L24.1699-44.7266C25-45.5566 25.3418-46.3867 25.3906-47.5586L25.3906-57.2266C25.3906-60.5957 25.7812-60.9863 29.1504-60.9863L38.8184-61.0352C39.9414-61.0352 40.8203-61.3281 41.6504-62.1582L48.4375-68.9941C50.7812-71.3379 51.416-71.3379 53.8086-68.9941L60.5957-62.1582C61.377-61.3281 62.2559-61.0352 63.4277-61.0352L73.0957-60.9863C76.3672-60.9863 76.8555-60.5469 76.8555-57.2266L76.8555-47.5586C76.8555-46.3867 77.1973-45.5566 78.0273-44.7266L84.8633-37.9395C87.207-35.5469 87.207-34.9609 84.8633-32.5684L78.0273-25.7812C77.1973-24.9512 76.8555-24.1211 76.8555-22.9492L76.8555-13.2812C76.8555-9.96094 76.3672-9.52148 73.0957-9.52148L63.4277-9.47266C62.2559-9.47266 61.4258-9.17969 60.5957-8.34961L53.8086-1.51367C51.416 0.830078 50.7812 0.830078 48.4375-1.51367L41.6504-8.34961C40.8203-9.17969 39.9414-9.47266 38.8184-9.47266ZM47.0703-17.041C48.6328-17.041 50.0488-17.8711 50.9766-19.2871L67.627-45.0195C68.2129-45.9473 68.7012-46.9727 68.7012-47.9492C68.7012-50.1953 66.6992-51.709 64.5996-51.709C63.1836-51.709 62.0117-50.9277 61.084-49.4141L46.9238-26.7578L40.7227-34.7168C39.6973-36.0352 38.623-36.5234 37.3535-36.5234C35.1074-36.5234 33.3496-34.7656 33.3496-32.5195C33.3496-31.4453 33.7402-30.5176 34.5215-29.541L42.9199-19.2383C44.1406-17.7734 45.4102-17.041 47.0703-17.041Z"/>
  </g>
  <g id="Medium-S" transform="matrix(1 0 0 1 1695.6 696)">
   <path d="M27.9785-1.36719L35.8887-1.36719C36.5723-1.36719 37.0605-1.17188 37.5977-0.683594L43.2129 4.93164C48.4375 10.1562 53.418 10.1562 58.6426 4.93164L64.2578-0.683594C64.7949-1.17188 65.2832-1.36719 66.0156-1.36719L73.877-1.36719C81.25-1.36719 84.8633-4.88281 84.8633-12.3047L84.8633-20.2148C84.8633-20.8984 85.0098-21.4355 85.5469-21.9238L91.1133-27.5391C96.3867-32.7637 96.3379-37.7441 91.1133-42.9688L85.5469-48.584C85.0098-49.1211 84.8633-49.6094 84.8633-50.3418L84.8633-58.2031C84.8633-65.5762 81.2988-69.1406 73.877-69.1406L66.0156-69.1406C65.2832-69.1406 64.7949-69.3359 64.2578-69.873L58.6426-75.4395C53.418-80.7129 48.4375-80.6641 43.2129-75.4395L37.5977-69.873C37.1094-69.3359 36.5723-69.1406 35.8887-69.1406L27.9785-69.1406C20.5566-69.1406 17.041-65.6738 17.041-58.2031L17.041-50.3418C17.041-49.6094 16.8457-49.1211 16.3574-48.584L10.791-42.9688C5.51758-37.7441 5.56641-32.7637 10.791-27.5391L16.3574-21.9238C16.8457-21.4355 17.041-20.8984 17.041-20.2148L17.041-12.3047C17.041-4.93164 20.6055-1.36719 27.9785-1.36719ZM28.5645-9.08203C25.2441-9.08203 24.7559-9.52148 24.7559-12.8418L24.7559-22.7539C24.7559-23.9258 24.4141-24.8047 23.5352-25.6348L16.6016-32.5684C14.2578-34.9609 14.2578-35.5469 16.6016-37.9395L23.5352-44.873C24.4141-45.7031 24.7559-46.582 24.7559-47.7539L24.7559-57.666C24.7559-61.0352 25.1953-61.4258 28.5645-61.4258L38.4277-61.4258C39.5996-61.4258 40.5273-61.7676 41.3574-62.6465L48.291-69.5801C50.6348-71.9727 51.2207-71.9727 53.6133-69.5801L60.5469-62.6465C61.377-61.7676 62.2559-61.4258 63.4277-61.4258L73.3398-61.4258C76.6602-61.4258 77.0996-60.9863 77.0996-57.666L77.0996-47.7539C77.0996-46.582 77.4902-45.7031 78.3203-44.873L85.3027-37.9395C87.6465-35.5469 87.6465-34.9609 85.3027-32.5684L78.3203-25.6348C77.4902-24.8047 77.0996-23.9258 77.0996-22.7539L77.0996-12.8418C77.0996-9.52148 76.6602-9.08203 73.3398-9.08203L63.4277-9.08203C62.2559-9.08203 61.377-8.74023 60.5469-7.86133L53.6133-0.927734C51.2207 1.46484 50.6348 1.46484 48.291-0.927734L41.3574-7.86133C40.4785-8.74023 39.5996-9.08203 38.4277-9.08203ZM46.8262-17.0898C48.3887-17.0898 49.707-17.8223 50.5859-19.2383L67.2852-45.3125C67.8711-46.2402 68.3594-47.2168 68.3594-48.1934C68.3594-50.3418 66.5039-51.709 64.502-51.709C63.2324-51.709 62.1094-51.0254 61.1816-49.5605L46.6797-26.1719L40.2344-34.6191C39.209-35.9863 38.1836-36.4258 36.9141-36.4258C34.8633-36.4258 33.2031-34.7656 33.2031-32.666C33.2031-31.6406 33.5938-30.7129 34.3262-29.834L42.8711-19.1895C44.043-17.7734 45.2637-17.0898 46.8262-17.0898Z"/>
  </g>
  <g id="Regular-S" transform="matrix(1 0 0 1 1399.14 696)">
   <path d="M27.7344-1.5625L35.6934-1.5625C36.4258-1.5625 36.9629-1.36719 37.5-0.830078L43.1641 4.78516C48.291 9.96094 53.125 9.91211 58.252 4.78516L63.916-0.830078C64.4531-1.36719 64.9902-1.5625 65.7715-1.5625L73.6816-1.5625C80.9082-1.5625 84.375-4.98047 84.375-12.3047L84.375-20.2148C84.375-20.9473 84.6191-21.4844 85.1562-22.0703L90.7227-27.6855C95.8984-32.8125 95.8496-37.6953 90.7227-42.8223L85.1562-48.4375C84.6191-49.0234 84.375-49.5605 84.375-50.293L84.375-58.2031C84.375-65.4785 80.957-68.9453 73.6816-68.9453L65.7715-68.9453C64.9902-68.9453 64.4531-69.1406 63.916-69.6777L58.252-75.293C53.125-80.4688 48.291-80.4199 43.1641-75.293L37.5-69.6777C36.9629-69.1406 36.4258-68.9453 35.6934-68.9453L27.7344-68.9453C20.459-68.9453 17.041-65.5273 17.041-58.2031L17.041-50.293C17.041-49.5605 16.8457-49.0234 16.3086-48.4375L10.6934-42.8223C5.51758-37.6953 5.56641-32.8125 10.6934-27.6855L16.3086-22.0703C16.8457-21.4844 17.041-20.9473 17.041-20.2148L17.041-12.3047C17.041-5.0293 20.459-1.5625 27.7344-1.5625ZM27.7344-8.54492C24.4141-8.54492 23.9746-8.93555 23.9746-12.3047L23.9746-22.4609C23.9746-23.6816 23.584-24.6094 22.7539-25.4883L15.5762-32.5684C13.2324-35.0098 13.2324-35.498 15.5762-37.9395L22.7539-45.0195C23.584-45.8984 23.9746-46.8262 23.9746-48.0469L23.9746-58.2031C23.9746-61.6211 24.3652-61.9629 27.7344-61.9629L37.9395-61.9629C39.1602-61.9629 40.0879-62.3047 40.918-63.2324L48.0469-70.4102C50.4395-72.7539 50.9766-72.7539 53.3691-70.4102L60.498-63.2324C61.377-62.3047 62.3047-61.9629 63.4766-61.9629L73.6816-61.9629C77.002-61.9629 77.4414-61.5723 77.4414-58.2031L77.4414-48.0469C77.4414-46.8262 77.832-45.8984 78.7109-45.0195L85.8398-37.9395C88.2324-35.498 88.2324-35.0098 85.8398-32.5684L78.7109-25.4883C77.832-24.6094 77.4414-23.6816 77.4414-22.4609L77.4414-12.3047C77.4414-8.93555 77.002-8.54492 73.6816-8.54492L63.4766-8.54492C62.3047-8.54492 61.377-8.20312 60.498-7.27539L53.3691-0.0976562C50.9766 2.24609 50.4395 2.24609 48.0469-0.0976562L40.918-7.27539C40.0879-8.20312 39.1602-8.54492 37.9395-8.54492ZM46.5332-17.0898C47.998-17.0898 49.2188-17.7734 50.0488-19.1406L66.8945-45.7031C67.3828-46.582 67.9688-47.5586 67.9688-48.5352C67.9688-50.4883 66.2109-51.7578 64.4043-51.7578C63.2812-51.7578 62.1582-51.0742 61.377-49.7559L46.3379-25.4883L39.5996-34.5215C38.5742-35.9375 37.5977-36.3281 36.4258-36.3281C34.4727-36.3281 33.0566-34.7656 33.0566-32.8125C33.0566-31.8848 33.3984-30.957 34.0332-30.127L42.7734-19.1406C43.8965-17.7246 45.0684-17.0898 46.5332-17.0898Z"/>
  </g>
  <g id="Light-S" transform="matrix(1 0 0 1 1103.21 696)">
   <path d="M26.5625-2.49023L35.1562-2.49023C35.9863-2.49023 36.5723-2.29492 37.1582-1.66016L43.2617 4.39453C47.8516 8.98438 51.9531 8.93555 56.543 4.39453L62.6465-1.66016C63.2812-2.29492 63.8672-2.49023 64.6973-2.49023L73.2422-2.49023C79.7363-2.49023 82.666-5.41992 82.666-11.9141L82.666-20.5078C82.666-21.2891 82.9102-21.9238 83.4961-22.5098L89.5508-28.6133C94.1406-33.2031 94.1406-37.3047 89.5508-41.8945L83.4961-47.998C82.9102-48.584 82.666-49.2188 82.666-50L82.666-58.5938C82.666-65.0391 79.7363-68.0176 73.2422-68.0176L64.6973-68.0176C63.8672-68.0176 63.2812-68.2129 62.6465-68.8477L56.543-74.9023C51.9531-79.4922 47.8516-79.4922 43.2617-74.9023L37.1582-68.8477C36.5723-68.2617 35.9863-68.0176 35.1562-68.0176L26.5625-68.0176C20.0684-68.0176 17.1387-65.1367 17.1387-58.5938L17.1387-50C17.1387-49.2188 16.8945-48.584 16.3086-47.998L10.2539-41.8945C5.66406-37.3047 5.71289-33.2031 10.2539-28.6133L16.3086-22.5098C16.8945-21.9238 17.1387-21.2891 17.1387-20.5078L17.1387-11.9141C17.1387-5.46875 20.0684-2.49023 26.5625-2.49023ZM26.5625-7.86133C23.1445-7.86133 22.5098-8.44727 22.5098-11.9141L22.5098-22.3145C22.5098-23.4375 22.168-24.3164 21.3379-25.0977L14.0625-32.373C11.6211-34.8633 11.6211-35.6445 14.0625-38.1348L21.3379-45.4102C22.168-46.1914 22.5098-47.0703 22.5098-48.1934L22.5098-58.5938C22.5098-62.1094 23.0957-62.6465 26.5625-62.6465L36.9629-62.6465C38.0859-62.6465 38.9648-62.9883 39.7461-63.8184L47.0215-71.1426C49.5117-73.584 50.293-73.584 52.7832-71.1426L60.0586-63.8184C60.8887-62.9883 61.7188-62.6465 62.8418-62.6465L73.2422-62.6465C76.709-62.6465 77.2949-62.0605 77.2949-58.5938L77.2949-48.1934C77.2949-47.0703 77.6855-46.1914 78.4668-45.4102L85.791-38.1348C88.2324-35.6445 88.2324-34.8633 85.791-32.373L78.4668-25.0977C77.6855-24.3164 77.2949-23.4375 77.2949-22.3145L77.2949-11.9141C77.2949-8.44727 76.709-7.86133 73.2422-7.86133L62.8418-7.86133C61.7188-7.86133 60.8887-7.51953 60.0586-6.68945L52.7832 0.634766C50.293 3.07617 49.5117 3.07617 47.0215 0.634766L39.7461-6.68945C38.9648-7.51953 38.0859-7.86133 36.9629-7.86133ZM45.8008-17.0898C46.9238-17.0898 47.8027-17.627 48.4863-18.6523L66.5527-46.9727C66.9434-47.6074 67.334-48.3887 67.334-49.1211C67.334-50.5859 66.0156-51.6113 64.5996-51.6113C63.7207-51.6113 62.8906-51.0742 62.2559-50.0977L45.6543-23.6816L37.4512-33.9844C36.6699-35.0098 35.8887-35.3516 34.9609-35.3516C33.4961-35.3516 32.3242-34.1797 32.3242-32.666C32.3242-31.9336 32.666-31.2012 33.1055-30.5664L42.9199-18.6523C43.75-17.5781 44.6289-17.0898 45.8008-17.0898Z"/>
  </g>
  <g id="Thin-S" transform="matrix(1 0 0 1 807.57 696)">
   <path d="M25.0488-3.66211L34.4727-3.66211C35.3516-3.66211 36.0352-3.4668 36.7188-2.7832L43.4082 3.90625C47.2656 7.71484 50.4395 7.71484 54.2969 3.90625L60.9863-2.7832C61.6699-3.4668 62.3047-3.66211 63.2324-3.66211L72.6562-3.66211C78.125-3.66211 80.4199-5.95703 80.4199-11.4258L80.4199-20.8496C80.4199-21.7773 80.6641-22.4121 81.3477-23.0957L87.9883-29.7852C91.8457-33.6914 91.7969-36.8164 87.9883-40.7227L81.3477-47.4121C80.6641-48.0957 80.4199-48.7305 80.4199-49.6582L80.4199-59.082C80.4199-64.5508 78.125-66.8457 72.6562-66.8457L63.2324-66.8457C62.3047-66.8457 61.6699-67.041 60.9863-67.7246L54.2969-74.4141C50.3906-78.2715 47.2656-78.3203 43.3594-74.4141L36.7188-67.7246C36.0352-67.0898 35.3516-66.8457 34.4727-66.8457L25.0488-66.8457C19.5312-66.8457 17.2852-64.5508 17.2852-59.082L17.2852-49.6582C17.2852-48.7305 16.9922-48.0957 16.3574-47.4121L9.7168-40.7227C5.85938-36.8164 5.85938-33.6914 9.7168-29.7852L16.3574-23.0957C16.9922-22.4121 17.2852-21.7773 17.2852-20.8496L17.2852-11.4258C17.2852-5.95703 19.5312-3.66211 25.0488-3.66211ZM25.0488-6.98242C21.4355-6.98242 20.5566-7.8125 20.5566-11.4258L20.5566-22.0703C20.5566-23.0957 20.2148-23.877 19.4824-24.6094L12.0117-32.1289C9.42383-34.668 9.42383-35.8398 12.0117-38.3789L19.4824-45.8984C20.2148-46.6309 20.5566-47.4121 20.5566-48.4375L20.5566-59.082C20.5566-62.7441 21.3867-63.5254 25.0488-63.5254L35.6445-63.5254C36.7188-63.5254 37.5-63.8672 38.2324-64.5996L45.7031-72.0703C48.291-74.6582 49.4141-74.6582 52.002-72.0703L59.4727-64.5996C60.2051-63.8672 60.9863-63.5254 62.0117-63.5254L72.6562-63.5254C76.2695-63.5254 77.1484-62.6953 77.1484-59.082L77.1484-48.4375C77.1484-47.4121 77.4414-46.6309 78.1738-45.8984L85.6934-38.3789C88.2324-35.8398 88.2324-34.668 85.6934-32.1289L78.1738-24.6094C77.4414-23.877 77.1484-23.0957 77.1484-22.0703L77.1484-11.4258C77.1484-7.8125 76.2695-6.98242 72.6562-6.98242L62.0117-6.98242C60.9863-6.98242 60.2051-6.64062 59.4727-5.9082L52.002 1.5625C49.4141 4.15039 48.291 4.15039 45.7031 1.5625L38.2324-5.9082C37.5-6.64062 36.7188-6.98242 35.6445-6.98242ZM44.7754-17.1387C45.459-17.1387 45.9961-17.4805 46.4355-18.0176L66.1133-48.6328C66.3086-48.9746 66.5527-49.4629 66.5527-49.8535C66.5527-50.7324 65.7227-51.416 64.8438-51.416C64.3066-51.416 63.7695-51.0742 63.3789-50.4883L44.6777-21.2891L34.5703-33.252C34.1309-33.8379 33.6426-34.082 33.0566-34.082C32.1777-34.082 31.4453-33.3496 31.4453-32.4219C31.4453-31.9336 31.6406-31.4941 31.9336-31.0547L43.0664-18.0176C43.6035-17.3828 44.0918-17.1387 44.7754-17.1387Z"/>
  </g>
  <g id="Ultralight-S" transform="matrix(1 0 0 1 511.396 696)">
   <path d="M24.2188-4.29688L34.082-4.29688C35.0586-4.29688 35.7422-4.05273 36.4746-3.32031L43.457 3.61328C46.9727 7.08008 49.6094 7.08008 53.125 3.61328L60.1562-3.32031C60.8887-4.05273 61.5234-4.29688 62.5-4.29688L72.3633-4.29688C77.3438-4.29688 79.248-6.25 79.248-11.1816L79.248-21.0449C79.248-22.0215 79.541-22.7051 80.2246-23.4375L87.207-30.4199C90.625-33.9355 90.625-36.5723 87.207-40.0879L80.2246-47.0703C79.541-47.8027 79.248-48.4863 79.248-49.4629L79.248-59.3262C79.248-64.2578 77.3438-66.2109 72.3633-66.2109L62.5-66.2109C61.5234-66.2109 60.8887-66.4551 60.1562-67.1875L53.125-74.1211C49.6094-77.6367 46.9727-77.6855 43.4082-74.1211L36.4746-67.1875C35.791-66.5039 35.0586-66.2109 34.082-66.2109L24.2188-66.2109C19.2871-66.2109 17.334-64.2578 17.334-59.3262L17.334-49.4629C17.334-48.4863 17.0898-47.8027 16.4062-47.0703L9.42383-40.0879C5.95703-36.5723 5.95703-33.9355 9.42383-30.4199L16.4062-23.4375C17.0898-22.7051 17.334-22.0215 17.334-21.0449L17.334-11.1816C17.334-6.25 19.2871-4.29688 24.2188-4.29688ZM24.2188-6.49414C20.5566-6.49414 19.5312-7.51953 19.5312-11.1816L19.5312-21.9727C19.5312-22.9492 19.2383-23.6816 18.5547-24.3652L10.9863-31.9824C8.34961-34.5703 8.34961-35.9375 10.9863-38.5254L18.5547-46.1426C19.2383-46.8262 19.5312-47.5586 19.5312-48.5352L19.5312-59.3262C19.5312-63.0371 20.5078-64.0137 24.2188-64.0137L35.0098-64.0137C35.9863-64.0137 36.7188-64.3066 37.4023-64.9902L45.0195-72.6074C47.6562-75.1953 48.9746-75.1953 51.6113-72.6074L59.1797-64.9902C59.8633-64.3066 60.6445-64.0137 61.6211-64.0137L72.3633-64.0137C76.0742-64.0137 77.0508-62.9883 77.0508-59.3262L77.0508-48.5352C77.0508-47.5586 77.3438-46.8262 78.0273-46.1426L85.6445-38.5254C88.2812-35.9375 88.2812-34.5703 85.6445-31.9824L78.0273-24.3652C77.3438-23.6816 77.0508-22.9492 77.0508-21.9727L77.0508-11.1816C77.0508-7.51953 76.0742-6.49414 72.3633-6.49414L61.6211-6.49414C60.6445-6.49414 59.8633-6.20117 59.1797-5.51758L51.6113 2.09961C48.9746 4.6875 47.6562 4.6875 45.0195 2.09961L37.4023-5.51758C36.7188-6.20117 35.9863-6.49414 35.0098-6.49414ZM44.2383-17.1387C44.7266-17.1387 45.0195-17.334 45.3613-17.7246L65.8691-49.4629C65.9668-49.707 66.1133-50 66.1133-50.2441C66.1133-50.8301 65.5762-51.3184 64.9902-51.3184C64.6484-51.3184 64.2578-51.0742 63.9648-50.7324L44.1895-20.0684L33.1055-32.9102C32.8125-33.252 32.4707-33.3984 32.0801-33.3984C31.4941-33.3984 30.957-32.959 30.957-32.3242C30.957-31.9824 31.1035-31.6406 31.3477-31.3477L43.1641-17.7246C43.457-17.2852 43.75-17.1387 44.2383-17.1387Z"/>
  </g>
 </g>
</svg>
